<?xml version="1.0" encoding="UTF-8"?>
<svg width="24px" height="24px" viewBox="0 0 24 24" version="1.1" xmlns="http://www.w3.org/2000/svg" xmlns:xlink="http://www.w3.org/1999/xlink">
    <g id="--" stroke="none" stroke-width="1" fill="none" fill-rule="evenodd">
        <g id="画板" transform="translate(-16.000000, -22.000000)">
            <g id="音频" transform="translate(16.000000, 22.000000)">
                <polygon id="路径" points="0 0 24 0 24 24 0 24"></polygon>
                <path d="M15,4.582 L15,12 C14.999315,13.3066344 14.1529978,14.462549 12.9075927,14.8578461 C11.6621875,15.2531433 10.3041631,14.7968964 9.55005687,13.7298361 C8.79595067,12.6627759 8.81922255,11.2303479 9.60759352,10.1883474 C10.3959645,9.14634688 11.7680931,8.73445534 13,9.17 L13,2.05 C18.053,2.551 22,6.815 22,12 C22,17.523 17.523,22 12,22 C6.477,22 2,17.523 2,12 C2,6.815 5.947,2.551 11,2.05 L11,4.062 C6.81329303,4.59472364 3.76033507,8.28784839 4.02462045,12.5000287 C4.28890582,16.712209 7.77954003,19.9947683 12,20 C15.8308298,20.0021359 19.1255149,17.2882754 19.8571873,13.5279673 C20.5888596,9.7676592 18.5521381,6.01642552 15,4.582 L15,4.582 Z" id="路径" fill="#4A94FE" fill-rule="nonzero"></path>
            </g>
        </g>
    </g>
</svg>