<?xml version="1.0" encoding="UTF-8"?>
<svg width="180px" height="180px" viewBox="0 0 180 180" version="1.1" xmlns="http://www.w3.org/2000/svg" xmlns:xlink="http://www.w3.org/1999/xlink">
    <title>空态图/无按钮备份@2x</title>
    <defs>
        <path d="M17.0774734,0 C20.8650861,14.9044275 22.9536783,24.9990664 23.3432498,30.2839168 C23.7328213,35.5687672 24.2826143,45.9292852 24.9926288,61.3654709 L20.6921572,62.4963047 C17.6715748,50.4340613 14.9396272,40.5856877 12.4963144,32.951184 C10.0530016,25.3166803 5.88756345,14.3329523 0,0 L17.0774734,0 Z" id="path-1"></path>
        <path d="M23.6374641,42.4315295 C26.1589116,20.2687344 26.4272631,7.13824087 24.4425186,3.0400488 C24.4425186,3.0400488 20.8434497,0 18.5533976,0 C16.2633456,0 -2.93955035,10.9291788 0.385752942,42.0593039 C0.385752942,42.0593039 3.87593112,43.6379981 10.6827792,43.6379981 C13.4776395,43.6379981 17.7958678,43.2358419 23.6374641,42.4315295 Z" id="path-3"></path>
        <path d="M0.865587082,4.68432262 L5.62180191,1.74298566 C7.4426539,0.616934925 9.60131503,0.166575958 11.7205252,0.470616098 L62.4150511,7.74368927 C63.3220313,7.87381247 63.9921389,8.65594511 63.9816223,9.57215177 L63.5501442,47.1626518 C63.5390621,48.1281349 63.0204556,49.0164625 62.185152,49.5007644 L59.0066114,51.3436549 C56.0829602,53.0387627 52.656295,53.6516979 49.326315,53.0751909 L2.27177217,44.9288136 C0.958862618,44.7015144 -1.61079973e-15,43.5623837 0,42.2299437 L0,6.23735293 C2.03483289e-16,5.60467952 0.327495772,5.01708888 0.865587082,4.68432262 Z" id="path-5"></path>
        <linearGradient x1="36.2992229%" y1="40.8659425%" x2="100%" y2="40.8659425%" id="linearGradient-7">
            <stop stop-color="#F1EFEF" offset="0%"></stop>
            <stop stop-color="#F3F1F1" offset="66.7093805%"></stop>
            <stop stop-color="#FBFBFB" offset="70.5649851%"></stop>
            <stop stop-color="#D5DDE6" offset="83.7290365%"></stop>
            <stop stop-color="#D5DDE6" offset="100%"></stop>
        </linearGradient>
        <linearGradient x1="36.2992229%" y1="40.8659425%" x2="100%" y2="40.8659425%" id="linearGradient-8">
            <stop stop-color="#F2F0F0" offset="0%"></stop>
            <stop stop-color="#F4F4F4" offset="25.7836659%"></stop>
            <stop stop-color="#F3F1F1" offset="57.9690071%"></stop>
            <stop stop-color="#F3F1F1" offset="66.7093805%"></stop>
            <stop stop-color="#FBFBFB" offset="70.5649851%"></stop>
            <stop stop-color="#D5DDE6" offset="83.7290365%"></stop>
            <stop stop-color="#D5DDE6" offset="100%"></stop>
        </linearGradient>
        <path d="M0,5.86397119 L7.12950486,0.243662142 C7.32679059,0.0881384725 7.57944146,0.020775951 7.82796775,0.0574359027 L20.8527033,1.97870617 C21.3006348,2.04478026 21.6324739,2.42915955 21.6324739,2.88193814 L21.6324739,5.91869158 L21.6324739,5.91869158 L14.7109532,12.1705062 L0,9.66189949 L0,5.86397119 Z" id="path-9"></path>
        <linearGradient x1="70.3523537%" y1="34.2581744%" x2="91.7451355%" y2="47.7147514%" id="linearGradient-11">
            <stop stop-color="#F9F8F8" offset="0%"></stop>
            <stop stop-color="#EBEEF1" offset="61.2707537%"></stop>
            <stop stop-color="#F6F6F6" offset="77.7585172%"></stop>
            <stop stop-color="#D5DDE6" stop-opacity="0.482626748" offset="86.4419195%"></stop>
            <stop stop-color="#D5DDE6" offset="100%"></stop>
        </linearGradient>
        <linearGradient x1="35.1288155%" y1="44.1413856%" x2="50%" y2="59.6357925%" id="linearGradient-12">
            <stop stop-color="#F1EFEF" offset="0%"></stop>
            <stop stop-color="#F5F2F3" offset="100%"></stop>
        </linearGradient>
        <linearGradient x1="37.5292197%" y1="19.5997275%" x2="50%" y2="100%" id="linearGradient-13">
            <stop stop-color="#F3F1F1" offset="0%"></stop>
            <stop stop-color="#FDFDFD" offset="100%"></stop>
        </linearGradient>
        <linearGradient x1="37.5292197%" y1="19.5997275%" x2="50%" y2="100%" id="linearGradient-14">
            <stop stop-color="#F3F1F1" offset="0%"></stop>
            <stop stop-color="#FDFDFD" offset="100%"></stop>
        </linearGradient>
        <linearGradient x1="36.2992229%" y1="40.8659425%" x2="100%" y2="40.8659425%" id="linearGradient-15">
            <stop stop-color="#F1EFEF" offset="0%"></stop>
            <stop stop-color="#F3F1F1" offset="66.7093805%"></stop>
            <stop stop-color="#FBFBFB" offset="70.5649851%"></stop>
            <stop stop-color="#DCDBDC" offset="83.7290365%"></stop>
            <stop stop-color="#DFDFDF" offset="100%"></stop>
        </linearGradient>
        <path d="M8,24 L59.8446951,33.0789485 C61.470797,33.3637085 63.145218,33.064597 64.5721584,32.2344544 L71.9331111,27.9521168 L71.9331111,27.9521168 L71.9331111,28.6841086 L64.5362139,32.8259189 C63.130339,33.6131229 61.4959347,33.8912249 59.9088216,33.6132925 L8,24.5231143 L8,24.5231143 L8,24 Z" id="path-16"></path>
        <filter x="-3.1%" y="-19.9%" width="106.3%" height="139.8%" filterUnits="objectBoundingBox" id="filter-17">
            <feGaussianBlur stdDeviation="1.5" in="SourceAlpha" result="shadowBlurInner1"></feGaussianBlur>
            <feOffset dx="0" dy="1" in="shadowBlurInner1" result="shadowOffsetInner1"></feOffset>
            <feComposite in="shadowOffsetInner1" in2="SourceAlpha" operator="arithmetic" k2="-1" k3="1" result="shadowInnerInner1"></feComposite>
            <feColorMatrix values="0 0 0 0 0.755583105   0 0 0 0 0.793956401   0 0 0 0 0.837126359  0 0 0 1 0" type="matrix" in="shadowInnerInner1"></feColorMatrix>
        </filter>
    </defs>
    <g id="点检（0307）" stroke="none" stroke-width="1" fill="none" fill-rule="evenodd">
        <g id="空态图/大图/无设备">
            <ellipse id="椭圆形" fill-opacity="0.1" fill="#949494" cx="90" cy="148" rx="69" ry="8"></ellipse>
            <g id="人物组件/测试3" transform="translate(36.000000, 15.000000)">
                <rect id="矩形" x="0" y="0" width="136" height="136"></rect>
                <g id="3-沮丧" transform="translate(37.400000, 9.784549)">
                    <g id="下半身" transform="translate(0.000000, 50.277906)">
                        <g id="编组-7" transform="translate(0.000000, 59.820928)">
                            <polygon id="路径-15" fill="#F5B2B2" points="5.00410923 0 1.03165108 4.67921667 3.32251392 6.06835729 7.32150869 2.26097077"></polygon>
                            <polygon id="路径-16" fill="#000000" points="1.6264259 3.80840065 3.78873133 6.09802382 4.88281102 9.06536752 4.33324639 9.4221563 1.78469859 6.88167456 1.3704114 6.88167456 0 5.64018404"></polygon>
                        </g>
                        <g id="编组-6" transform="translate(48.880754, 66.232006) rotate(-60.000000) translate(-48.880754, -66.232006) translate(45.220000, 61.520928)">
                            <polygon id="路径-15备份" fill="#F5B2B2" points="5.00410923 -4.54747351e-13 1.03165108 4.67921667 3.32251392 6.06835729 7.32150869 2.26097077"></polygon>
                            <polygon id="路径-16备份" fill="#000000" points="1.6264259 3.80840065 3.78873133 6.09802382 4.88281102 9.06536752 4.33324639 9.4221563 1.78469859 6.88167456 1.3704114 6.88167456 -4.54747351e-13 5.64018404"></polygon>
                        </g>
                        <g id="路径-31" transform="translate(24.927537, 2.882501)">
                            <mask id="mask-2" fill="white">
                                <use xlink:href="#path-1"></use>
                            </mask>
                            <use id="蒙版" fill="#FAF9F9" xlink:href="#path-1"></use>
                            <path d="M11.1768379,15.6983764 C12.6978987,20.5766424 14.2268661,26.3275783 15.7637401,32.951184 C17.3006141,39.5747897 19.3131,49.5933232 21.8011979,63.0067844 L19.8396394,64.2793089 L4.94885639,22.6137979 L11.1768379,15.6983764 Z" fill="#98C5FF" mask="url(#mask-2)"></path>
                        </g>
                        <path d="M18.9332949,2.05866759 C18.6226138,2.60788976 19.0307575,5.67648814 20.1577258,11.2644627 C20.1577258,15.2556319 19.0450329,30.8737824 17.4821943,34.1864176 C16.440302,36.3948411 11.4878878,45.3590439 2.62495186,61.0790259 L6.2857062,64.2479718 C18.2758808,51.2818521 25.6804176,42.7638612 28.4993165,38.693999 C31.3182154,34.6241369 35.8201134,22.6869708 42.0050103,2.88250084 L18.9332949,2.05866759 Z" id="路径-4" fill="#FAF9F9"></path>
                        <line x1="31.3109438" y1="33.1664176" x2="39.3983764" y2="11.1407272" id="路径-30" stroke="#000000" stroke-width="0.5"></line>
                    </g>
                    <g id="上半身" transform="translate(18.367546, 10.728877)">
                        <g id="路径-9">
                            <mask id="mask-4" fill="white">
                                <use xlink:href="#path-3"></use>
                            </mask>
                            <use id="蒙版" fill="#5798EB" xlink:href="#path-3"></use>
                            <polygon fill="#3F84DA" mask="url(#mask-4)" points="11.5088472 11.6757544 6.55999079 45.1754463 14.8750696 45.1754463"></polygon>
                        </g>
                        <polygon id="路径-14" fill="#5798EB" points="19.9922574 53.4049804 19.6047426 56.9199857 9.75788178 56.9199857 10.0482575 53.4049804"></polygon>
                        <path d="M12.3990472,47.5511957 C12.3990472,50.3441119 12.3990472,51.7405699 12.3990472,51.7405699 C12.2495091,52.3501618 11.6846446,53.7308557 11.8316648,54.8308377 C12.2072366,57.6408082 15.0494982,58.9628237 15.9862561,56.9189855 C16.923014,54.8751474 15.2417475,53.2999022 15.7821372,53.2999022 C16.1287746,53.2999022 17.3054356,53.2778622 17.295778,53.1674758 C17.2647461,52.8127791 16.7542932,52.2638142 15.7644193,51.5205812 L15.7644193,47.7173166 L12.3990472,47.5511957 Z" id="路径-10" fill="#F5B2B2" transform="translate(14.551653, 52.730820) rotate(5.000000) translate(-14.551653, -52.730820) "></path>
                        <path d="M11.5088472,11.6757544 C10.9581352,19.1182745 10.6827792,24.6465825 10.6827792,28.2606785 C10.6827792,39.5628869 11.6150745,47.2206863 11.9560113,49.8023053 C11.9560113,49.8023053 13.853931,49.8023053 17.6497704,49.8023053 C20.6694593,27.66954 22.429377,14.9606897 22.9295235,11.6757544" id="路径-8" fill="#5798EB"></path>
                        <path d="M11.5088472,11.6757544 C10.9581352,19.1182745 10.6827792,24.6465825 10.6827792,28.2606785 C10.6827792,31.3448917 10.7522042,34.1577178 10.8600921,36.6700619" id="路径" stroke="#000000" stroke-width="0.5"></path>
                        <path d="M17.6497704,49.8023053 C18.3879368,44.3919256 19.0508238,39.5446847 19.6384315,35.2605827 C21.4546077,22.0192929 22.5516384,14.1576835 22.9295235,11.6757544" id="路径" stroke="#000000" stroke-width="0.5" fill="#FFFFFF"></path>
                    </g>
                    <g id="领带" transform="translate(40.185547, 23.508239) scale(-1, 1) translate(-40.185547, -23.508239) translate(36.244574, 11.827278)">
                        <path d="M1.05509147,2.50582671 C1.72664717,2.76640787 2.4355692,2.80392397 3.18185756,2.618375 L1.44871516,4.96816025 L1.91367979,21.4757731 C1.20414662,22.396251 0.69536869,23.0249676 0.387345995,23.3619227 C0.140641333,20.1680202 0.0132559956,17.3085858 0.00518998243,14.7836193 C-0.00690903735,10.9961697 -0.00690903734,10.3395148 0.108828224,8.24139717 C0.185986399,6.84265206 0.350171415,5.5517671 0.601383272,4.36874228 L1.05509147,2.50582671 Z" id="路径-13" fill="#FF5E34" fill-rule="nonzero"></path>
                        <path d="M7.02004189,0 C6.90467884,0.293717151 6.82221129,0.48234388 6.77263922,0.565880189 C6.45739658,1.07334339 5.87856784,1.82401392 5.24762788,2.12299116 C4.58864435,2.43525714 3.83021368,2.50582671 3.30137028,2.48114608 C3.19810047,2.47632658 2.94762438,2.42183496 2.79968007,2.44426502 C2.9704127,2.70378474 3.05577901,3.00611301 3.05577901,3.35124981 C3.05577901,3.69638661 2.89466078,4.03555077 2.57242431,4.36874228 C5.7268591,3.48760602 7.414721,2.73902231 7.63601002,2.12299116 C7.79968391,1.66735079 8.0012169,1.27215209 7.79323645,0.711334115 C7.68841883,0.42869407 7.43068731,0.191582698 7.02004189,0 Z" id="路径-11" fill="#98C5FF"></path>
                        <path d="M2.71875368,0.958740661 C2.32016126,1.55955591 2.34713673,2.0547307 2.79968007,2.44426502 C1.67466064,2.56710242 1.00118644,2.9613652 0.779257462,3.62705334 C0.467908943,3.15362925 0.565295527,2.64049944 1.07141721,2.08766392 C1.5775389,1.5348284 2.12665105,1.15852065 2.71875368,0.958740661 Z" id="路径-12" fill="#98C5FF"></path>
                    </g>
                    <g id="头" transform="translate(37.106479, 0.000000)">
                        <g transform="translate(0.000000, 0.000000)">
                            <path d="M0,11.8272779 L4.8242591,7.1862118 L7.06627722,11.3729333 L4.22036181,14.2715429 C3.04399726,14.4269217 2.1229343,14.2881739 1.45717292,13.8552993 C0.791411548,13.4224248 0.305687239,12.7464177 0,11.8272779 Z" id="路径-7" fill="#F5B2B2"></path>
                            <path d="M8.92385193,14.0659175 C11.1463035,14.0659175 15.7548495,6.59457418 15.3327987,5.61720506 C14.910748,4.63983593 12.4664601,2.86280116 10.301134,2.86280116 C8.1358079,2.86280116 5.08136791,6.23733656 4.44761757,7.80181715 C5.0651155,9.56977018 6.70140035,14.0659175 8.92385193,14.0659175 Z" id="路径-11" fill="#F5B2B2"></path>
                            <path d="M5.10888722,6.36338283 C6.07339457,3.20490209 6.95736661,1.2977113 7.76080331,0.641810465 C8.96595837,-0.342040784 10.9276254,0.0460846505 11.4018847,0.246094488 C11.6145626,0.335787315 13.228738,0.804543957 14.4413963,1.83911092 C15.9328961,3.11156868 17.0509284,5.01964028 17.0509284,5.45251489 C17.0509284,5.97572934 15.9308627,7.26814368 13.6907313,9.3297579 C14.6564685,7.77012177 15.1393371,6.78133008 15.1393371,6.36338283 C15.1393371,5.96423878 14.858699,5.27182864 13.6907313,6.00258747 C13.4368082,6.16145879 12.4439349,5.77345213 12.1854679,5.77345213 C11.7112075,5.77345213 10.9916519,6.33178146 10.0268012,7.4484401 L5.10888722,8.46435933 L4.19059078,7.81561215 L5.10888722,6.36338283 Z" id="路径-12" fill="#000000"></path>
                            <path d="M9.90377368,7.80674258 C10.7282085,6.68721426 10.7282085,5.88022057 9.90377368,5.38576153 C8.66712142,4.64407297 7.40336577,7.75087125 8.29381732,8.15659413 C8.88745169,8.42707605 9.42410381,8.31045887 9.90377368,7.80674258 Z" id="路径-13" fill="#F5B2B2"></path>
                        </g>
                    </g>
                </g>
            </g>
            <g id="通用组件/花草/1" transform="translate(111.000000, 103.000000)">
                <g id="编组" transform="translate(26.096579, 25.509525) scale(-1, 1) translate(-26.096579, -25.509525) translate(5.602306, 8.349722)">
                    <path d="M0.876004049,0.136482736 C1.62925523,-0.208342097 2.51942171,0.122752873 2.86424655,0.876004049 C4.33485954,4.0884785 6.42088117,7.03747912 8.70312214,9.36351892 C9.63667007,10.3149827 10.5517862,11.1042483 11.3286631,11.6468403 C11.5981564,11.8350618 11.8404376,11.9858435 12.0434034,12.0943991 L12.3008406,12.2213216 C12.3291014,12.2366962 12.3245736,12.2420397 12.2726936,12.2420397 C13.1011208,12.2420397 13.7726936,12.9136126 13.7726936,13.7420397 C13.7726936,14.5704668 13.1011208,15.2420397 12.2726936,15.2420397 C11.3088353,15.2420397 9.9336892,14.4841155 8.41894124,13.2144892 L7.96060048,12.8184965 C7.80660534,12.6815461 7.65148586,12.5397248 7.49551373,12.393279 L7.02531109,11.9403141 L6.55162268,11.461079 C6.07673476,10.9692013 5.59906337,10.4401345 5.12594401,9.88052643 L4.65461368,9.31098421 C2.93395845,7.18714028 1.30737685,4.68248003 0.136482736,2.12472523 C-0.208342097,1.37147406 0.122752873,0.481307569 0.876004049,0.136482736 Z" id="路径-59" fill="#17968F"></path>
                    <path d="M11.2877355,23.8460667 C10.2208473,26.7219981 9.24673806,28.1599638 8.36540772,28.1599638 C7.04341222,28.1599638 5.58226917,17.1887014 10.2903272,10.0916553 C14.9983852,2.99460923 21.446257,1.23290166 22.350789,3.80731891 C23.255321,6.38173615 22.2116206,8.32994774 24.7860483,8.32994774 C27.360476,8.32994774 38.2843819,9.51279572 36.0578544,11.7393232 C33.8313268,13.9658508 29.4478351,12.261356 28.027182,15.6502779 C26.6065288,19.0391997 43.5692959,23.8460667 40.650057,28.1599638 C39.6177027,29.6855225 33.356976,29.0608291 28.027182,28.1599638 C24.3196895,27.5333071 20.435726,25.801759 19.8428566,27.0140264 C18.3976936,29.9690174 23.5618756,34.3196059 21.0539432,34.3196059 C19.3819882,34.3196059 16.1265857,30.8284262 11.2877355,23.8460667 Z" id="路径-56" fill="#1DBCB3"></path>
                </g>
            </g>
            <g id="图标/空态图/部分/监控点" transform="translate(20.000000, 80.000000)">
                <g id="编组-4" transform="translate(8.000000, 13.333333)">
                    <g id="编组-12" transform="translate(0.000000, 0.699073)">
                        <mask id="mask-6" fill="white">
                            <use xlink:href="#path-5"></use>
                        </mask>
                        <g id="矩形"></g>
                        <path d="M0,5.21961872 L52.0213792,14.2258859 C53.6029192,14.499692 55.2295834,14.1683837 56.5780445,13.2978142 L64,8.50618318 L64,8.50618318 L63.2528741,8.26595458 C62.3466457,7.97456868 61.4179703,7.75827083 60.4762542,7.61925184 L12.3710619,0.517817563 C10.1012479,0.18274074 7.78513153,0.63496713 5.80807144,1.79925468 L0,5.21961872 L0,5.21961872 Z" id="矩形" fill="#FCFCFC" mask="url(#mask-6)"></path>
                        <path d="M0,5.21961872 L23.4526354,9.27988595 L23.4526354,6.29467211 C23.4526354,5.79043292 23.8614021,5.3816663 24.3656413,5.3816663 C24.4151721,5.3816663 24.4646209,5.38569689 24.5134979,5.39371816 L35.5216632,7.20028164 C35.9629324,7.27269887 36.2868124,7.65406365 36.2868124,8.10123559 L36.2868124,11.5018191 L36.2868124,11.5018191 L52.0213792,14.2258859 C53.6029192,14.499692 55.2295834,14.1683837 56.5780445,13.2978142 L64,8.50618318 L64,8.50618318 L63.5322717,48.7197159 L56.4893275,52.8031545 C55.1918832,53.5554015 53.6712138,53.827407 52.1934508,53.5715674 L0,44.5355101 L0,44.5355101 L0,5.21961872 Z" id="矩形" fill="url(#linearGradient-7)" mask="url(#mask-6)"></path>
                        <path d="M0,5.21961872 L20.9720516,8.83899615 L20.9720516,5.85612567 C20.9720516,5.35188648 21.3808182,4.94311985 21.8850574,4.94311985 C21.9352431,4.94311985 21.9853434,4.94725773 22.0348492,4.95549143 L35.5235983,7.19891488 C35.9639791,7.27215819 36.2868124,7.65311904 36.2868124,8.09954912 L36.2868124,11.5018191 L36.2868124,11.5018191 L52.0213792,14.2258859 C53.6029192,14.499692 55.2295834,14.1683837 56.5780445,13.2978142 L64,8.50618318 L64,8.50618318 L63.5322717,48.7197159 L56.4893275,52.8031545 C55.1918832,53.5554015 53.6712138,53.827407 52.1934508,53.5715674 L0,44.5355101 L0,44.5355101 L0,5.21961872 Z" id="矩形" fill="url(#linearGradient-8)" mask="url(#mask-6)"></path>
                    </g>
                    <g id="编组" transform="translate(4.069126, 0.000000)">
                        <g id="编组-2" transform="translate(17.514009, 0.000000)">
                            <mask id="mask-10" fill="white">
                                <use xlink:href="#path-9"></use>
                            </mask>
                            <g id="路径-27"></g>
                            <path d="M3.03164901e-13,9.66189949 L3.03164901e-13,5.86397119 L7.45964456,-1.43353459 L20.4151328,0.699072855 L22.3865773,1.38857027 L24.2451781,3.37509462 L15.8988537,12.1705062 L13.612215,12.0092989 L3.03164901e-13,9.66189949 Z" id="形状结合" fill="url(#linearGradient-11)" mask="url(#mask-10)"></path>
                            <path d="M-0.61108291,9.538069 L-0.61108291,6.55519852 C-0.61108291,6.05095933 -0.202316285,5.64219271 0.301922901,5.64219271 C0.352108658,5.64219271 0.402208977,5.64633059 0.451714698,5.65456428 L13.9404639,7.89798774 C14.3808446,7.97123104 14.7036779,8.3521919 14.7036779,8.79862197 L14.7036779,12.2008919 L14.7036779,12.2008919 L-0.61108291,9.538069 Z" id="矩形" fill="url(#linearGradient-12)" mask="url(#mask-10)"></path>
                        </g>
                        <path d="M22.3345219,49.5334956 C29.8697104,49.753112 34.8595315,43.1509031 33.4795993,34.7870495 C32.0996671,26.4231958 24.8725338,19.4649185 17.3373453,19.2453021 C9.80215678,19.0256858 4.81233566,25.6278946 6.19226787,33.9917483 C7.57220008,42.355602 14.7993334,49.3138793 22.3345219,49.5334956 Z" id="椭圆形" fill="#D5DDE6"></path>
                        <path d="M20.3854268,49.4766884 C27.5617968,49.6858468 32.3140074,43.3980289 30.9997862,35.432454 C29.6855651,27.466879 22.802581,20.8399482 15.626211,20.6307898 C8.44984097,20.4216314 3.69763038,26.7094493 5.01185153,34.6750243 C6.32607268,42.6405992 13.2090568,49.26753 20.3854268,49.4766884 Z" id="椭圆形备份" fill="url(#linearGradient-13)"></path>
                        <path d="M15.8641718,22.0730847 C22.3229048,22.2613273 28.5175904,28.225565 29.7003895,35.3945825 C30.5986975,40.8392824 28.347775,45.4130183 24.3836334,47.2157529 L19.6200598,50.4724706 L17.7507774,47.7028908 C12.2205379,46.3386448 7.34642742,40.98718 6.31124826,34.7128957 C6.07494498,33.2806471 6.05655985,31.9086667 6.22995374,30.6315403 L4.21604756,27.6484744 L10.2540287,23.5183756 L10.3254995,23.624143 C11.8594119,22.57944 13.7442725,22.0112994 15.8641718,22.0730847 Z" id="形状结合" fill="#D5DDE6"></path>
                        <path d="M14.032781,52.3217411 C20.491514,52.5099837 24.7685035,46.8509475 23.5857045,39.6819301 C22.4029054,32.5129126 16.2082197,26.5486749 9.74948675,26.3604323 C3.29075375,26.1721897 -0.986235781,31.8312259 0.196563257,39.0002433 C1.3793623,46.1692608 7.57404797,52.1334985 14.032781,52.3217411 Z" id="椭圆形备份-3" fill="url(#linearGradient-14)"></path>
                        <path d="M13.556536,50.6598554 C19.297632,50.8271821 23.0994005,45.7969278 22.0480235,39.4244678 C20.9966466,33.0520079 15.4902593,27.7504633 9.74916335,27.5831365 C4.00806735,27.4158098 0.206298878,32.4460641 1.2576758,38.8185241 C2.30905272,45.190984 7.81543999,50.4925286 13.556536,50.6598554 Z" id="椭圆形备份-3" fill="#000100"></path>
                        <path d="M12.2847838,36.2160336 C13.1930431,36.2425052 13.7932,35.4388557 13.6252718,34.4210323 C13.4573435,33.4032088 12.5849211,32.5566404 11.6766618,32.5301688 C10.7684024,32.5036971 10.1682455,33.3073466 10.3361738,34.3251701 C10.5041021,35.3429935 11.3765245,36.189562 12.2847838,36.2160336 Z" id="椭圆形" fill="#FFFFFF"></path>
                        <path d="M7.89931982,36.0882173 C8.20207293,36.0970412 8.40212523,35.829158 8.34614915,35.4898835 C8.29017306,35.1506091 7.99936559,34.8684196 7.69661248,34.8595957 C7.39385937,34.8507718 7.19380707,35.118655 7.24978315,35.4579295 C7.30575924,35.797204 7.59656671,36.0793934 7.89931982,36.0882173 Z" id="椭圆形备份-4" fill="#FFFFFF"></path>
                    </g>
                    <g id="编组-3" transform="translate(41.998267, 6.533002)">
                        <path d="M5.47803487,1.17707736 C7.29488057,1.17707736 8.90514535,1.57798256 9.90173583,2.19527077 L10.9560697,2.19540818 L10.9560697,3.37248554 L10.9197637,3.37267008 C10.9437445,3.46697043 10.9560697,3.56287915 10.9560697,3.66009269 C10.9560697,5.0314242 8.50346998,6.14310803 5.47803487,6.14310803 C2.45259975,6.14310803 0,5.0314242 0,3.66009269 C0,3.56287915 0.0123252387,3.46697043 0.0363060529,3.37267008 L0,3.37248554 L0,2.19540818 L1.05433391,2.19527077 C2.05092439,1.57798256 3.66118916,1.17707736 5.47803487,1.17707736 Z" id="形状结合备份" fill="#FF5E34"></path>
                        <path d="M5.47803487,4.96603067 C8.50346998,4.96603067 10.9560697,3.85434684 10.9560697,2.48301534 C10.9560697,1.11168383 8.50346998,0 5.47803487,0 C2.45259975,0 0,1.11168383 0,2.48301534 C0,3.85434684 2.45259975,4.96603067 5.47803487,4.96603067 Z" id="椭圆形备份-2" fill="#FC7B5A" fill-rule="nonzero"></path>
                    </g>
                    <g id="编组-3" transform="translate(43.215608, 4.690070)">
                        <path d="M8.52138757,1.52762431 L8.52138757,4.21523407 L8.4929491,4.21465864 C8.5117326,4.28050197 8.52138757,4.34747321 8.52138757,4.4153589 C8.52138757,5.3695684 6.61380999,6.14310803 4.26069379,6.14310803 C1.90757758,6.14310803 0,5.3695684 0,4.4153589 C0,4.34747321 0.00965497485,4.28050197 0.0284384682,4.21465864 L0,4.21523407 L0,1.52762431 L8.52138757,1.52762431 Z" id="形状结合备份" fill="#FF5E34"></path>
                        <path d="M4.26069379,3.45549827 C6.61380999,3.45549827 8.52138757,2.68195863 8.52138757,1.72774913 C8.52138757,0.773539636 6.61380999,0 4.26069379,0 C1.90757758,0 0,0.773539636 0,1.72774913 C0,2.68195863 1.90757758,3.45549827 4.26069379,3.45549827 Z" id="椭圆形备份-2" fill="#FC7B5A" fill-rule="nonzero"></path>
                    </g>
                </g>
                <g id="矩形备份-15">
                    <use fill="url(#linearGradient-15)" fill-rule="evenodd" xlink:href="#path-16"></use>
                    <use fill="black" fill-opacity="1" filter="url(#filter-17)" xlink:href="#path-16"></use>
                </g>
            </g>
        </g>
    </g>
</svg>