<?xml version="1.0" encoding="UTF-8"?>
<svg width="400px" height="207px" viewBox="0 0 400 207" version="1.1" xmlns="http://www.w3.org/2000/svg" xmlns:xlink="http://www.w3.org/1999/xlink">
    <title>default_no data_nor</title>
    <defs>
        <linearGradient x1="50%" y1="100%" x2="50%" y2="15.4742292%" id="linearGradient-1">
            <stop stop-color="#FFFFFF" offset="0%"></stop>
            <stop stop-color="#FFFFFF" stop-opacity="0" offset="100%"></stop>
        </linearGradient>
        <linearGradient x1="50%" y1="0%" x2="50%" y2="100%" id="linearGradient-2">
            <stop stop-color="#FFFFFF" stop-opacity="0" offset="0%"></stop>
            <stop stop-color="#FFFFFF" offset="100%"></stop>
        </linearGradient>
        <polygon id="path-3" points="6.57894737 0 13.1578947 25.4577156 6.57894737 26.4137849 0 25.4577156"></polygon>
        <rect id="path-5" x="0" y="0" width="400" height="206.504065"></rect>
        <linearGradient x1="50%" y1="19.3797562%" x2="50%" y2="-4.26202965%" id="linearGradient-7">
            <stop stop-color="#FFFFFF" stop-opacity="0" offset="0%"></stop>
            <stop stop-color="#C3D1DB" offset="100%"></stop>
        </linearGradient>
        <linearGradient x1="44.3558644%" y1="46.9205388%" x2="52.4571936%" y2="54.0238568%" id="linearGradient-8">
            <stop stop-color="#FFFFFF" stop-opacity="0" offset="0%"></stop>
            <stop stop-color="#B0C1D0" offset="100%"></stop>
        </linearGradient>
        <linearGradient x1="33.5446099%" y1="58.0461764%" x2="115.807148%" y2="43.7278919%" id="linearGradient-9">
            <stop stop-color="#FFFFFF" stop-opacity="0" offset="0%"></stop>
            <stop stop-color="#C3D1DB" offset="100%"></stop>
        </linearGradient>
        <ellipse id="path-10" cx="86.4870301" cy="162.096764" rx="24.1001856" ry="16.0535646"></ellipse>
        <filter x="-0.0%" y="-0.0%" width="100.0%" height="100.0%" filterUnits="objectBoundingBox" id="filter-11">
            <feGaussianBlur stdDeviation="0" in="SourceGraphic"></feGaussianBlur>
        </filter>
        <filter x="-17.6%" y="-26.5%" width="135.3%" height="152.9%" filterUnits="objectBoundingBox" id="filter-12">
            <feGaussianBlur stdDeviation="5" in="SourceAlpha" result="shadowBlurInner1"></feGaussianBlur>
            <feOffset dx="-1" dy="7" in="shadowBlurInner1" result="shadowOffsetInner1"></feOffset>
            <feComposite in="shadowOffsetInner1" in2="SourceAlpha" operator="arithmetic" k2="-1" k3="1" result="shadowInnerInner1"></feComposite>
            <feColorMatrix values="0 0 0 0 0.587001636   0 0 0 0 0.691139775   0 0 0 0 0.884539176  0 0 0 0.2 0" type="matrix" in="shadowInnerInner1"></feColorMatrix>
        </filter>
        <linearGradient x1="0%" y1="50%" x2="114.632179%" y2="50%" id="linearGradient-13">
            <stop stop-color="#FFFFFF" stop-opacity="0" offset="0%"></stop>
            <stop stop-color="#C3D1DB" offset="100%"></stop>
        </linearGradient>
        <ellipse id="path-14" cx="309.523354" cy="136.355376" rx="11.9017842" ry="5.05370734"></ellipse>
        <filter x="-0.0%" y="-0.0%" width="100.0%" height="100.0%" filterUnits="objectBoundingBox" id="filter-15">
            <feGaussianBlur stdDeviation="0" in="SourceGraphic"></feGaussianBlur>
        </filter>
        <filter x="-31.5%" y="-74.2%" width="163.0%" height="248.4%" filterUnits="objectBoundingBox" id="filter-16">
            <feGaussianBlur stdDeviation="5" in="SourceAlpha" result="shadowBlurInner1"></feGaussianBlur>
            <feOffset dx="-5" dy="2" in="shadowBlurInner1" result="shadowOffsetInner1"></feOffset>
            <feComposite in="shadowOffsetInner1" in2="SourceAlpha" operator="arithmetic" k2="-1" k3="1" result="shadowInnerInner1"></feComposite>
            <feColorMatrix values="0 0 0 0 0.587001636   0 0 0 0 0.691139775   0 0 0 0 0.884539176  0 0 0 0.198563156 0" type="matrix" in="shadowInnerInner1"></feColorMatrix>
        </filter>
        <linearGradient x1="34.7564677%" y1="23.0219637%" x2="100%" y2="70.2804741%" id="linearGradient-17">
            <stop stop-color="#FFFFFF" stop-opacity="0" offset="0%"></stop>
            <stop stop-color="#C3D1DB" offset="100%"></stop>
        </linearGradient>
        <filter x="-0.0%" y="-0.0%" width="100.0%" height="100.0%" filterUnits="objectBoundingBox" id="filter-18">
            <feGaussianBlur stdDeviation="0" in="SourceGraphic"></feGaussianBlur>
        </filter>
        <polygon id="path-19" points="3.7593985 0 7.51879699 14.5472661 3.7593985 15.0935914 0 14.5472661"></polygon>
        <polygon id="path-21" points="0.455740074 1.57849654 11.1626812 0.0792504291 11.5094381 19.9213683 0.802092395 21.3974652"></polygon>
        <filter x="-54.5%" y="-49.3%" width="208.9%" height="198.6%" filterUnits="objectBoundingBox" id="filter-23">
            <feGaussianBlur stdDeviation="2" in="SourceGraphic"></feGaussianBlur>
        </filter>
        <linearGradient x1="60.0113649%" y1="57.9640099%" x2="36.5576067%" y2="29.9368839%" id="linearGradient-24">
            <stop stop-color="#FFFFFF" stop-opacity="0" offset="0%"></stop>
            <stop stop-color="#FFFFFF" offset="100%"></stop>
        </linearGradient>
        <linearGradient x1="52.6771654%" y1="63.6484851%" x2="36.6940815%" y2="39.7843981%" id="linearGradient-25">
            <stop stop-color="#FFFFFF" stop-opacity="0" offset="0%"></stop>
            <stop stop-color="#FFFFFF" offset="100%"></stop>
        </linearGradient>
        <polygon id="path-26" points="0.455222103 1.48753242 10.4337797 0.339498425 10.7807387 20.1931825 0.806137181 21.5675911"></polygon>
        <filter x="-57.3%" y="-48.5%" width="214.5%" height="197.0%" filterUnits="objectBoundingBox" id="filter-28">
            <feGaussianBlur stdDeviation="2" in="SourceGraphic"></feGaussianBlur>
        </filter>
        <linearGradient x1="21.2690176%" y1="19.1052176%" x2="-8.55125203%" y2="73.6632949%" id="linearGradient-29">
            <stop stop-color="#CDD9E4" offset="0%"></stop>
            <stop stop-color="#CDD9E5" offset="25.6151507%"></stop>
            <stop stop-color="#B7C3D0" offset="33.6458551%"></stop>
            <stop stop-color="#96A3B1" offset="100%"></stop>
        </linearGradient>
        <linearGradient x1="113.774819%" y1="2.93904763%" x2="-24.0865309%" y2="94.3177934%" id="linearGradient-30">
            <stop stop-color="#F0F8FF" offset="0%"></stop>
            <stop stop-color="#B0C1D0" offset="100%"></stop>
        </linearGradient>
        <path d="M5.33763356,13.0072759 L104.52565,0.238195841 C106.612331,-0.0304353575 108.521948,1.44137813 108.790898,3.52558327 C108.808877,3.66490817 108.819117,3.80512062 108.821571,3.94557661 L110.046169,73.9857633 C110.079236,75.9116482 108.666697,77.5588813 106.756254,77.8216116 L5.89295726,91.6926621 C3.80867906,91.9792989 1.88639672,90.5240273 1.59941948,88.442222 C1.5787372,88.2921876 1.5670417,88.1410536 1.56439539,87.9896267 L0.353800818,18.7675665 C0.303870949,15.8599109 2.44996728,13.3790229 5.33763356,13.0072759 Z" id="path-31"></path>
        <linearGradient x1="32.7370852%" y1="61.9631733%" x2="1.68322172%" y2="26.7100524%" id="linearGradient-33">
            <stop stop-color="#FFFFFF" stop-opacity="0" offset="0%"></stop>
            <stop stop-color="#FFFFFF" offset="100%"></stop>
        </linearGradient>
        <filter x="-60.2%" y="-39.5%" width="220.4%" height="179.0%" filterUnits="objectBoundingBox" id="filter-34">
            <feGaussianBlur stdDeviation="3" in="SourceGraphic"></feGaussianBlur>
        </filter>
        <linearGradient x1="68.4087169%" y1="69.4410207%" x2="27.2735023%" y2="18.7981029%" id="linearGradient-35">
            <stop stop-color="#ABB8C5" offset="0%"></stop>
            <stop stop-color="#E6EFF8" offset="100%"></stop>
        </linearGradient>
        <linearGradient x1="57.4697691%" y1="57.1821171%" x2="67.5329378%" y2="0%" id="linearGradient-36">
            <stop stop-color="#FFFFFF" stop-opacity="0" offset="0%"></stop>
            <stop stop-color="#FFFFFF" offset="100%"></stop>
        </linearGradient>
        <linearGradient x1="40.9774748%" y1="88.8669545%" x2="74.1017528%" y2="8.0103492%" id="linearGradient-37">
            <stop stop-color="#EFF5FE" offset="0%"></stop>
            <stop stop-color="#D2DEE9" offset="100%"></stop>
        </linearGradient>
        <linearGradient x1="0%" y1="55.0616573%" x2="97.6144675%" y2="55.0616573%" id="linearGradient-38">
            <stop stop-color="#DBE7F1" offset="0%"></stop>
            <stop stop-color="#BAC5CF" offset="100%"></stop>
        </linearGradient>
        <linearGradient x1="84.2617012%" y1="50%" x2="-9.39664587%" y2="50%" id="linearGradient-39">
            <stop stop-color="#E6EDF2" stop-opacity="0" offset="0%"></stop>
            <stop stop-color="#D2DEE9" offset="100%"></stop>
        </linearGradient>
        <linearGradient x1="84.2617012%" y1="50%" x2="-9.39664587%" y2="50%" id="linearGradient-40">
            <stop stop-color="#E6EDF2" stop-opacity="0" offset="0%"></stop>
            <stop stop-color="#D2DEE9" offset="100%"></stop>
        </linearGradient>
    </defs>
    <g id="设计说明" stroke="none" stroke-width="1" fill="none" fill-rule="evenodd">
        <g id="页面模块空状态" transform="translate(-551.000000, -362.000000)">
            <g id="反馈/空状态/暂无内容（暂无事件、暂无订阅）" transform="translate(551.000000, 362.000000)">
                <polygon id="路径-24" fill="url(#linearGradient-1)" fill-rule="nonzero" points="176.666667 124.854926 176.666667 140.967669 177.666667 140.856762 177.666667 124.796402"></polygon>
                <polygon id="路径-24" fill="url(#linearGradient-2)" fill-rule="nonzero" points="240.47619 116.769383 240.47619 132.882035 241.47619 132.779974 241.47619 116.710768"></polygon>
                <g id="编组-25" transform="translate(67.085578, 116.436930) rotate(-1.000000) translate(-67.085578, -116.436930) translate(54.077448, 100.989775)">
                    <polygon id="路径-55" fill="#E7ECF0" fill-rule="nonzero" points="18.0289826 26.4976627 20.1875936 30.2830399 21.0151524 29.8122437 18.8565414 26.0268665"></polygon>
                    <g id="路径-54" transform="translate(12.724246, 15.241813) rotate(-29.000000) translate(-12.724246, -15.241813) translate(5.813677, 1.827179)">
                        <mask id="mask-4" fill="white">
                            <use xlink:href="#path-3"></use>
                        </mask>
                        <use id="蒙版" fill="#F6F8FA" xlink:href="#path-3"></use>
                        <polygon fill="#E7ECF0" mask="url(#mask-4)" points="6.57894737 -5.68434189e-14 6.57894737 26.687272 14.2598433 26.0885647"></polygon>
                    </g>
                </g>
                <g id="bg">
                    <mask id="mask-6" fill="white">
                        <use xlink:href="#path-5"></use>
                    </mask>
                    <g id="蒙版"></g>
                    <ellipse id="椭圆形" fill="url(#linearGradient-7)" opacity="0.4" mask="url(#mask-6)" cx="200" cy="333.120367" rx="238.095238" ry="237.33712"></ellipse>
                </g>
                <g id="编组-29" opacity="0.776971726" transform="translate(197.619048, 140.492043)">
                    <path d="M11.6237763,6.51940985 C11.1135343,7.53482685 9.0727621,8.58653671 8.99760563,8.4930166 C8.92244916,8.3994965 9.12130066,7.84678878 8.94984996,8.09076278 C8.77839926,8.33473677 8.23097049,8.69678478 8.25357615,8.55356989 C8.27627967,8.41025718 8.4882444,8.18819585 8.32481822,8.18486982 C8.16139204,8.18173944 7.79138343,8.40742028 6.38621187,8.50279904 C4.98094245,8.59837346 4.49408901,8.36437755 4.56190599,8.29149839 C4.6296251,8.21871706 4.42656562,8.00907942 3.73635913,7.99362317 C3.04615264,7.97826474 3.10105209,7.94647182 3.35059506,7.69966093 C3.60023589,7.45294785 4.16488802,7.01234687 4.7315952,6.87412103 C5.29830239,6.73589519 4.1030405,6.63904906 3.16798833,6.27983795 C2.23283829,5.92062685 1.74833349,5.52737286 1.76066385,5.46202618 C1.77299421,5.3966795 2.24614724,5.38004935 2.01558911,5.22196516 C1.78512884,5.06388097 1.1723296,4.99833864 1.26676449,4.85864544 C1.36119938,4.71905005 1.61778827,4.49160838 1.84678064,4.47634778 C2.07577301,4.46108718 0.899593818,4.10216955 0.50081437,3.60629779 C0.101937061,3.11032821 0.473609293,3.28318388 0.517939868,3.23123914 C0.562368302,3.17919657 -0.212682798,2.55497924 0.0572150472,2.54050123 C0.327015032,2.52602322 1.00958844,2.7675516 1.04618808,2.73458479 C1.08278771,2.70142233 0.678723827,2.3348744 1.05020034,2.35385232 C1.42167685,2.37283025 2.56047352,2.73174788 2.68945299,2.74935627 C2.81843245,2.76686683 2.49696239,2.03142319 2.62594186,2.04903157 C2.75492132,2.06644431 2.89985196,2.42516629 3.04399972,2.27598412 C3.18814748,2.12670413 2.90102628,1.86287179 3.16612899,1.95296804 C3.43123169,2.04316211 4.10675918,2.2831253 4.93211032,2.84864801 C5.75736359,3.41417072 5.94094893,3.84596751 6.06268675,3.86876059 C6.18442458,3.89155367 5.39763028,2.42047072 5.50018754,2.18373574 C5.60274481,1.94700075 5.81607958,2.37292808 5.79846479,2.17972494 C5.78084999,1.98632615 5.64012733,1.48986745 5.77566341,1.43342278 C5.91110163,1.37688029 6.99382453,1.69461386 7.31040159,2.07759629 C7.62707651,2.46057872 7.23563656,1.72758068 7.44691627,1.73305884 C7.65819599,1.73863483 9.11650552,2.58403308 9.46674641,2.9910803 C9.81698731,3.39793187 9.3809232,2.81274647 9.6915308,2.87046285 C10.0022363,2.92827705 10.0641816,3.49096285 10.2674368,3.48656076 C10.4705942,3.48206084 9.93735509,2.93336392 10.3922083,3.0846004 C10.8470615,3.23593471 12.0807824,5.51279703 11.6237763,6.51940985" id="Fill-55" fill="#DCE6EE"></path>
                    <path d="M14.0047286,5.09253337 C13.4944867,6.10795038 11.4537145,7.15966023 11.378558,7.06614013 C11.3034015,6.97262003 11.502253,6.41991231 11.3308023,6.6638863 C11.1593516,6.90786029 10.6119229,7.2699083 10.6345285,7.12669342 C10.657232,6.98338071 10.8691968,6.76131938 10.7057706,6.75799335 C10.5423444,6.75486297 10.1723358,6.9805438 8.76716425,7.07592257 C7.36189483,7.17149698 6.8750414,6.93750108 6.94285837,6.86462192 C7.01057748,6.79184058 6.807518,6.58220295 6.11731151,6.5667467 C5.42710502,6.55138827 5.48200448,6.51959535 5.73154744,6.27278445 C5.98118827,6.02607138 6.5458404,5.58547039 7.11254758,5.44724455 C7.67925477,5.30901871 6.48399289,5.21217258 5.54894071,4.85296148 C4.61379067,4.49375037 4.12928587,4.10049639 4.14161623,4.0351497 C4.15394659,3.96980302 4.62709963,3.95317288 4.3965415,3.79508869 C4.16608123,3.6370045 3.55328198,3.57146217 3.64771687,3.43176896 C3.74215176,3.29217358 3.99874065,3.06473191 4.22773302,3.04947131 C4.45672539,3.0342107 3.2805462,2.67529307 2.88176675,2.17942132 C2.48288944,1.68345174 2.85456167,1.85630741 2.89889225,1.80436267 C2.94332068,1.7523201 2.16826958,1.12810276 2.43816743,1.11362476 C2.70796741,1.09914675 3.39054083,1.34067513 3.42714046,1.30770832 C3.4637401,1.27454585 3.05967621,0.90799792 3.43115272,0.926975849 C3.80262923,0.945953778 4.9414259,1.30487141 5.07040537,1.3224798 C5.19938483,1.33999036 4.87791477,0.60454671 5.00689424,0.622155098 C5.1358737,0.639567836 5.28080434,0.998289818 5.4249521,0.849107647 C5.56909986,0.699827651 5.28197866,0.435995313 5.54708137,0.526091562 C5.81218407,0.616285635 6.48771157,0.856248826 7.3130627,1.42177154 C8.13831597,1.98729425 8.32190131,2.41909104 8.44363913,2.44188411 C8.56537696,2.46467719 7.77858266,0.993594248 7.88113993,0.756859261 C7.98369719,0.520124275 8.19703196,0.946051602 8.17941717,0.752848462 C8.16180237,0.559449673 8.02107971,0.0629909721 8.15661579,0.0065463079 C8.29205401,-0.0499961806 9.37477691,0.267737388 9.69135397,0.650719815 C10.0080289,1.03370224 9.61658894,0.300704202 9.82786865,0.306182367 C10.0391484,0.311758357 11.4974579,1.1571566 11.8476988,1.56420383 C12.1979397,1.9710554 11.7618756,1.38586999 12.0724832,1.44358637 C12.3831886,1.50140058 12.445134,2.06408638 12.6483892,2.05968428 C12.8515465,2.05518436 12.3183075,1.50648744 12.7731607,1.65772393 C13.2280139,1.80905824 14.4617348,4.08592055 14.0047286,5.09253337" id="Fill-55" fill="#C6D3E0"></path>
                    <path d="M4.83741052,4.13969461 C4.83741052,4.13969461 6.28055176,4.43414598 8.45754504,4.16327029 L8.46322092,4.16503113 C6.80508129,3.64538805 5.03616416,2.88979258 3.26391979,1.79034443 C3.26391979,1.79034443 5.02745462,2.75714273 7.31189816,3.59442155 C6.06878275,2.1590445 4.81597919,1.53042507 4.81597919,1.53042507 C4.81597919,1.53042507 5.93970542,2.03128587 7.67045716,3.72325625 C8.72010338,4.09234762 9.86193372,4.42367877 10.983507,4.61786016 C11.5088194,4.708739 11.995575,4.77760736 12.4480796,4.83004123 C11.242151,2.67565502 9.59056797,1.44835042 9.59056797,1.44835042 C9.59056797,1.44835042 11.0383086,2.34999768 12.8280699,4.87122529 C15.3529555,5.12253611 16.6734781,4.83424767 17.0818479,4.87954036 C17.5027437,4.9314851 18.251079,5.34772782 15.696444,5.29969605 C14.7171591,5.28130507 13.3891012,5.21253453 11.8449685,4.96181066 C8.99861291,6.20241938 7.46025391,6.33673224 7.46025391,6.33673224 C7.46025391,6.33673224 9.27007651,6.09823642 11.5047093,4.9041921 C10.662722,4.7556947 9.76172509,4.55231783 8.82177991,4.27400748 L8.84722351,4.28183343 C6.07984092,4.44881964 4.83741052,4.13969461 4.83741052,4.13969461" id="Fill-56" fill="#9FACBA"></path>
                </g>
                <g id="编组-29" opacity="0.839425223" transform="translate(250.952381, 126.698904)">
                    <path d="M8.71783219,3.81940003 C8.33515071,4.58096278 6.80457158,5.36974517 6.74820422,5.2996051 C6.69183687,5.22946502 6.84097549,4.81493423 6.71238747,4.99791472 C6.58379945,5.18089522 6.17322787,5.45243123 6.19018211,5.34502006 C6.20720975,5.23753553 6.3661833,5.07098953 6.24361366,5.06849501 C6.12104403,5.06614723 5.84353757,5.23540785 4.7896589,5.30694192 C3.73570684,5.37862273 3.37056676,5.20312581 3.42142949,5.14846644 C3.47221882,5.09388044 3.31992422,4.93665221 2.80226935,4.92506002 C2.28461448,4.9135412 2.32578907,4.88969651 2.5129463,4.70458834 C2.70017692,4.51955353 3.12366601,4.1891028 3.5486964,4.08543341 C3.97372679,3.98176403 3.07728038,3.90912944 2.37599124,3.63972111 C1.67462871,3.37031278 1.31125012,3.07537229 1.32049789,3.02636228 C1.32974565,2.97735227 1.68461043,2.96487966 1.51169184,2.84631652 C1.33884663,2.72775337 0.879247202,2.67859663 0.950073368,2.57382672 C1.02089953,2.46913018 1.2133412,2.29854893 1.38508548,2.28710348 C1.55682975,2.27565803 0.674695364,2.0064698 0.375610777,1.63456599 C0.0764527961,1.2625888 0.35520697,1.39223056 0.388454901,1.353272 C0.421776227,1.31424007 -0.159512098,0.846077072 0.0429112854,0.835218567 C0.245261274,0.824360061 0.757191333,1.00550635 0.78464106,0.980781236 C0.812090786,0.955909389 0.50904287,0.68099844 0.787650254,0.695231887 C1.06625764,0.709465333 1.92035514,0.978653556 2.01708974,0.991859847 C2.11382434,1.00499277 1.87272179,0.453410033 1.96945639,0.466616323 C2.06619099,0.479675877 2.17488897,0.748717364 2.28299979,0.636830735 C2.39111061,0.524870738 2.17576971,0.326996484 2.37459674,0.394568671 C2.57342377,0.462214226 3.08006939,0.64218662 3.69908274,1.06632865 C4.31802269,1.49047068 4.4557117,1.81431828 4.54701506,1.83141309 C4.63831843,1.8485079 4.04822271,0.745195686 4.12514066,0.567644446 C4.20205861,0.390093206 4.36205969,0.709538701 4.34884859,0.564636347 C4.33563749,0.419587255 4.23009549,0.0472432291 4.33174756,0.00490973093 C4.43332622,-0.0374971355 5.2453684,0.200803041 5.48280119,0.488039861 C5.72030738,0.775276681 5.42672742,0.225528152 5.5851872,0.229636776 C5.74364699,0.233818768 6.83737914,0.867867452 7.10005981,1.17315287 C7.36274048,1.47829155 7.0356924,1.03940249 7.2686481,1.08268978 C7.5016772,1.12605043 7.54813623,1.54806478 7.70057762,1.54476321 C7.85294562,1.54138827 7.45301632,1.12986558 7.79415623,1.24329295 C8.13529615,1.35679368 9.0605868,3.06444042 8.71783219,3.81940003" id="Fill-55" fill="#C6D3E0"></path>
                    <path d="M1.84234361,3.10477096 C1.84234361,3.10477096 2.92469953,3.32560949 4.55744449,3.12245272 L4.5617014,3.12377334 C3.31809668,2.73404104 1.99140883,2.16734443 0.662225555,1.34275832 C0.662225555,1.34275832 1.98487668,2.06785705 3.69820934,2.69581616 C2.76587277,1.61928338 1.8262701,1.1478188 1.8262701,1.1478188 C1.8262701,1.1478188 2.66906478,1.5234644 3.96712858,2.79244219 C4.75436325,3.06926071 5.610736,3.31775908 6.45191599,3.46339512 C6.8459003,3.53155425 7.21096698,3.58320552 7.55034542,3.62253092 C6.64589895,2.00674127 5.40721169,1.08626281 5.40721169,1.08626281 C5.40721169,1.08626281 6.49301718,1.76249826 7.83533816,3.65341897 C9.72900231,3.84190208 10.7193943,3.62568576 11.0256716,3.65965527 C11.3413435,3.69861383 11.902595,4.01079586 9.98661873,3.97477204 C9.25215506,3.9609788 8.25611164,3.9094009 7.09801209,3.72135799 C4.96324539,4.65181453 3.80947614,4.75254918 3.80947614,4.75254918 C3.80947614,4.75254918 5.1668431,4.57367731 6.84281771,3.67814408 C6.21132721,3.56677103 5.53557953,3.41423837 4.83062065,3.20550561 L4.84970334,3.21137507 C2.77416641,3.33661473 1.84234361,3.10477096 1.84234361,3.10477096" id="Fill-56" fill="#9FACBA"></path>
                </g>
                <g id="编组-26" opacity="0.839425223" transform="translate(129.047619, 136.687039)">
                    <path d="M3.51363856,6.04386103 C4.02388054,7.05927804 6.06465271,8.11089006 6.13980918,8.01736996 C6.21496565,7.92394768 6.01611416,7.37123997 6.18756486,7.61511613 C6.35901556,7.85909012 6.90644433,8.22123596 6.88383867,8.07792325 C6.86113515,7.93470837 6.64917042,7.71264704 6.8125966,7.70932101 C6.97602278,7.7060928 7.34603139,7.93177363 8.75120295,8.02725022 C10.1564724,8.12272681 10.6433258,7.88873091 10.5756067,7.81594957 C10.5077897,7.74307042 10.7108492,7.53353061 11.4010557,7.51807435 C12.0912622,7.5026181 12.0363627,7.47092301 11.7868198,7.22401428 C11.5371789,6.97730121 10.9725268,6.53670023 10.4058196,6.39847439 C9.83911243,6.26034637 11.0343743,6.16340241 11.9694265,5.80428913 C12.9045765,5.44507803 13.3890813,5.05172622 13.376751,4.98647736 C13.3644206,4.92113068 12.8912676,4.90450054 13.1218257,4.74631852 C13.352286,4.58833216 13.9650852,4.52278983 13.8706503,4.38309662 C13.7762154,4.24340341 13.5196266,4.01605957 13.2906342,4.00070114 C13.0616418,3.98553836 14.237821,3.62652291 14.6366004,3.13074898 C15.0354778,2.6347794 14.6638055,2.80763507 14.6194749,2.75569032 C14.5750465,2.70364776 15.3500976,2.0793326 15.0801998,2.06485459 C14.8103998,2.05047441 14.1278264,2.29190496 14.0912267,2.25893815 C14.054725,2.22587351 14.458691,1.85922775 14.0872145,1.87820568 C13.7158358,1.89718361 12.5769413,2.25610124 12.4479618,2.27370963 C12.3189824,2.29131802 12.6404524,1.55577654 12.511473,1.57338493 C12.3824935,1.59089549 12.2375629,1.94961748 12.0934151,1.80033748 C11.9492673,1.65105748 12.2363885,1.38732297 11.9712858,1.47741922 C11.7061831,1.56751547 11.0306556,1.80747866 10.2054024,2.37309919 C9.38005123,2.93852408 9.19646589,3.37032087 9.07472807,3.39311395 C8.95299024,3.41600485 9.73978454,1.94482408 9.63722727,1.7080891 C9.53467001,1.47135411 9.32133523,1.89737926 9.33895003,1.7040783 C9.35656483,1.51077733 9.49728749,1.01431863 9.36175141,0.957776142 C9.22631319,0.901331478 8.14359029,1.21906505 7.82701323,1.60204747 C7.51033831,1.9850299 7.90177826,1.25193404 7.69049854,1.2574122 C7.47921883,1.26298819 6.0209093,2.10848426 5.6706684,2.51543366 C5.32042751,2.92228523 5.75658947,2.33719765 5.44588401,2.39491403 C5.13517855,2.45263041 5.07323318,3.01541404 4.87007585,3.01091412 C4.66682065,3.0064142 5.20005973,2.45771728 4.7452065,2.60905159 C4.29035328,2.76038589 3.05663242,5.03724821 3.51363856,6.04386103" id="Fill-57" fill="#E3ECF2"></path>
                    <path d="M9.16579717,4.9627553 L9.16012129,4.96451614 C10.8182609,4.44497088 12.5871781,3.68927759 14.3594224,2.58982944 C14.3594224,2.58982944 12.5958876,3.55672556 10.311444,4.39400438 C11.5545595,2.95852951 12.807363,2.32991008 12.807363,2.32991008 C12.807363,2.32991008 11.6836368,2.8308687 9.95288505,4.52274126 C8.90323883,4.89183263 7.76140849,5.22316378 6.63993304,5.41734517 C6.11452277,5.50822401 5.62776719,5.57709237 5.17526261,5.62962406 C6.38119123,3.47523786 8.03277424,2.24783543 8.03277424,2.24783543 C8.03277424,2.24783543 6.58503359,3.14948269 4.79527228,5.6707103 C2.27038674,5.92202112 0.949961934,5.63383051 0.541494346,5.67902537 C0.120598541,5.73097011 -0.627736783,6.14721283 1.92689819,6.09918106 C2.90618308,6.08079008 4.23424097,6.01201954 5.77837371,5.76139349 C8.62482716,7.00200221 10.1630883,7.13631508 10.1630883,7.13631508 C10.1630883,7.13631508 8.3532657,6.89781925 6.11863289,5.70367711 C6.96062022,5.55527754 7.86161712,5.35180284 8.8015623,5.07359031 L8.7761187,5.08131844 C11.5435013,5.24840247 12.7859317,4.93917962 12.7859317,4.93917962 C12.7859317,4.93917962 11.3427905,5.23372882 9.16579717,4.9627553 Z" id="Fill-58" fill="#E7F0F5"></path>
                    <path d="M4.94220999,5.09261004 C5.45245197,6.10802705 7.49322414,7.15963908 7.56838061,7.06611898 C7.64353708,6.9726967 7.44468559,6.41998898 7.61613629,6.66386515 C7.78758698,6.90783914 8.33501575,7.26998498 8.3124101,7.12667227 C8.28970658,6.98345738 8.07774185,6.76139605 8.24116803,6.75807002 C8.4045942,6.75484182 8.77460282,6.98052265 10.1797744,7.07599924 C11.5850438,7.17147583 12.0718972,6.93747993 12.0041781,6.86469859 C11.9363611,6.79181943 12.1394206,6.58227962 12.8296271,6.56682337 C13.5198336,6.55136712 13.4649342,6.51967202 13.2153912,6.2727633 C12.9657504,6.02605023 12.4010982,5.58544924 11.834391,5.4472234 C11.2676839,5.30909539 12.4629457,5.21215143 13.3979979,4.85303815 C14.333148,4.49382705 14.8176528,4.10047524 14.8053224,4.03522638 C14.792992,3.9698797 14.319839,3.95324955 14.5503971,3.79506754 C14.7808574,3.63708117 15.3936566,3.57153884 15.2992218,3.43184564 C15.2047869,3.29215243 14.948198,3.06480858 14.7192056,3.04945016 C14.4902132,3.03428738 15.6663924,2.67527192 16.0651719,2.17949799 C16.4640492,1.68352841 16.092377,1.85638408 16.0480464,1.80443934 C16.0036179,1.75239677 16.778669,1.12808161 16.5087712,1.11360361 C16.2389712,1.09922342 15.5563978,1.34065398 15.5197982,1.30768717 C15.4832964,1.27462253 15.8872624,0.907976771 15.5157859,0.926954699 C15.1444073,0.945932628 14.0055127,1.30485026 13.8765333,1.32245865 C13.7475538,1.34006703 14.0690239,0.60452556 13.9400444,0.622133948 C13.8110649,0.639644511 13.6661343,0.998366493 13.5219865,0.849086497 C13.3778388,0.699806501 13.66496,0.436071987 13.3998573,0.526168236 C13.1347546,0.616264485 12.4592271,0.856227676 11.6339738,1.42184821 C10.8086227,1.9872731 10.6250373,2.41906989 10.5032995,2.44186296 C10.3815617,2.46475387 11.168356,0.993573098 11.0657987,0.756838112 C10.9632414,0.520103125 10.7499067,0.946128277 10.7675215,0.752827312 C10.7851363,0.559526348 10.9258589,0.0630676468 10.7903228,0.00652515822 C10.6548846,-0.049919506 9.57216171,0.267814063 9.25558465,0.65079649 C8.93890974,1.03377892 9.33034969,0.300683053 9.11906997,0.306161218 C8.90779026,0.311737207 7.44948073,1.15723328 7.09923983,1.56418268 C6.74899894,1.97103425 7.1851609,1.38594667 6.87445544,1.44366305 C6.56374998,1.50137943 6.50180461,2.06416305 6.29864728,2.05966313 C6.09539208,2.05516321 6.62863115,1.50646629 6.17377793,1.6578006 C5.71892471,1.80913491 4.48520385,4.08599723 4.94220999,5.09261004" id="Fill-57" fill="#C6D3E0"></path>
                    <path d="M14.1095379,4.13968325 C14.1095379,4.13968325 12.6663967,4.43423244 10.4894034,4.16325892 L10.4837275,4.16501976 C12.1418671,3.64547451 13.9107843,2.88978121 15.6830286,1.79033306 C15.6830286,1.79033306 13.9194938,2.75722918 11.6350502,3.59450801 C12.8781657,2.15903313 14.1309692,1.5304137 14.1309692,1.5304137 C14.1309692,1.5304137 13.007243,2.03137232 11.2764913,3.72324488 C10.226845,4.09233625 9.0850147,4.42366741 7.96353924,4.61784879 C7.43812897,4.70872763 6.95137339,4.77759599 6.49886881,4.83012768 C7.70479744,2.67574148 9.35638044,1.44833905 9.35638044,1.44833905 C9.35638044,1.44833905 7.90863979,2.34998631 6.11887848,4.87121392 C3.59399295,5.12252474 2.27356814,4.83433413 1.86510055,4.87952899 C1.44420474,4.93147373 0.69586942,5.34771645 3.25050439,5.29968468 C4.22978928,5.2812937 5.55784717,5.21252316 7.10197991,4.96189712 C9.94843337,6.20250583 11.4866945,6.3368187 11.4866945,6.3368187 C11.4866945,6.3368187 9.6768719,6.09832288 7.44223909,4.90418073 C8.28422642,4.75578116 9.18522332,4.55230646 10.1251685,4.27409394 L10.0997249,4.28182206 C12.8671075,4.44890609 14.1095379,4.13968325 14.1095379,4.13968325" id="Fill-58" fill="#9FACBA"></path>
                </g>
                <path d="M133.441574,136.511731 L87.4243946,122.908583 L150.963024,103.372636 L230.524213,124.433094 L213.014936,125.530895 L236.383577,131.014782 L235.511031,131.070637 C233.91396,131.177697 232.606299,131.293579 231.588047,131.418282 C230.390104,131.564991 228.716082,131.963949 226.565983,132.615156 L196.582795,127.648609 L157.246331,132.490721 L173.400396,138.548807 L172.595835,138.62898 C170.600343,138.832814 169.069499,139.028567 168.003305,139.21624 L167.528633,139.303413 C166.368101,139.524586 164.83683,139.870148 162.934819,140.340099 L143.346665,134.986954 L133.441574,136.511731 Z" id="路径-59" fill="url(#linearGradient-8)"></path>
                <g id="椭圆形" opacity="0.3" filter="url(#filter-11)" transform="translate(86.487030, 162.096764) rotate(-27.000000) translate(-86.487030, -162.096764) ">
                    <use fill="url(#linearGradient-9)" fill-rule="evenodd" xlink:href="#path-10"></use>
                    <use fill="black" fill-opacity="1" filter="url(#filter-12)" xlink:href="#path-10"></use>
                </g>
                <g id="椭圆形" opacity="0.45" filter="url(#filter-15)" transform="translate(309.523354, 136.355376) rotate(-155.000000) translate(-309.523354, -136.355376) ">
                    <use fill="url(#linearGradient-13)" fill-rule="evenodd" xlink:href="#path-14"></use>
                    <use fill="black" fill-opacity="1" filter="url(#filter-16)" xlink:href="#path-14"></use>
                </g>
                <ellipse id="椭圆形" fill="url(#linearGradient-17)" opacity="0.3" filter="url(#filter-18)" transform="translate(249.166139, 179.457592) rotate(-156.000000) translate(-249.166139, -179.457592) " cx="249.166139" cy="179.457592" rx="14.8775059" ry="12.4853916"></ellipse>
                <g id="编组-25" transform="translate(94.884946, 109.457105) rotate(4.000000) translate(-94.884946, -109.457105) translate(87.161369, 100.107512)">
                    <polygon id="路径-55" fill="#E7ECF0" fill-rule="nonzero" points="10.1249417 16.0554145 11.3584337 18.2184872 12.1859925 17.7476911 10.9525005 15.5846184"></polygon>
                    <g id="路径-54" transform="translate(7.400734, 9.517099) rotate(-29.000000) translate(-7.400734, -9.517099) translate(3.335693, 1.793521)">
                        <mask id="mask-20" fill="white">
                            <use xlink:href="#path-19"></use>
                        </mask>
                        <use id="蒙版" fill="#F6F8FA" xlink:href="#path-19"></use>
                        <polygon fill="#E7ECF0" mask="url(#mask-20)" points="3.7593985 -5.68434189e-14 3.7593985 15.2498697 8.14848188 14.9077513"></polygon>
                    </g>
                </g>
                <g id="路径-78" transform="translate(168.411590, 130.012143) rotate(1.000000) translate(-168.411590, -130.012143) translate(162.314029, 119.036533)">
                    <mask id="mask-22" fill="white">
                        <use xlink:href="#path-21"></use>
                    </mask>
                    <use id="蒙版" fill="#BECDDA" xlink:href="#path-21"></use>
                    <polygon fill="#9FACBA" filter="url(#filter-23)" mask="url(#mask-22)" points="11.4840457 3.24896158 0.466281036 12.7646265 0.466281036 0.878075282 11.4840457 0.589751486"></polygon>
                </g>
                <path d="M173.490365,119.113812 L173.837034,138.95593 L163.129776,140.432026 L162.783424,120.613058 L173.490365,119.113812 Z M163.266897,121.025636 L163.596524,139.887546 L173.353547,138.542448 L173.023635,119.659443 L163.266897,121.025636 Z" id="蒙版" fill="url(#linearGradient-24)" fill-rule="nonzero" transform="translate(168.310229, 129.772919) rotate(1.000000) translate(-168.310229, -129.772919) "></path>
                <polygon id="路径-58" fill="#9FACBA" transform="translate(159.235759, 129.211625) rotate(1.000000) translate(-159.235759, -129.211625) " points="163.137971 140.273681 155.656182 136.633306 155.333547 118.149569 162.773059 119.367883"></polygon>
                <g id="路径-78" transform="translate(231.625737, 122.110490) rotate(1.000000) translate(-231.625737, -122.110490) translate(225.934680, 111.134881)">
                    <path d="M10.4337797,0.339498425 L10.7807387,20.1931825 L0.806137181,21.5675911 L0.455222103,1.48753242 L10.4337797,0.339498425 Z M0.938879573,1.91065798 L1.2728856,21.0231474 L10.2972493,19.7796728 L9.96682249,0.871992293 L0.938879573,1.91065798 Z" id="蒙版" fill="url(#linearGradient-25)" fill-rule="nonzero"></path>
                    <mask id="mask-27" fill="white">
                        <use xlink:href="#path-26"></use>
                    </mask>
                    <use id="蒙版" fill="#BECDDA" xlink:href="#path-26"></use>
                    <polygon fill="#9FACBA" filter="url(#filter-28)" mask="url(#mask-27)" points="10 4.06161193 -0.476190476 13.7686646 -0.476190476 1.88211336 10 1.40240184"></polygon>
                </g>
                <path d="M236.368858,111.472393 L236.715817,131.326242 L226.741216,132.700485 L226.390301,112.620592 L236.368858,111.472393 Z M226.873958,113.043718 L227.207964,132.156042 L236.232328,130.912732 L235.901901,112.004886 L226.873958,113.043718 Z" id="蒙版" fill="url(#linearGradient-25)" fill-rule="nonzero" transform="translate(231.553059, 122.086439) rotate(1.000000) translate(-231.553059, -122.086439) "></path>
                <polygon id="路径-58" fill="#9FACBA" transform="translate(222.932187, 121.449397) rotate(1.000000) translate(-222.932187, -121.449397) " points="226.760299 132.550036 219.428843 128.954766 219.104074 110.348759 226.390839 111.383695"></polygon>
                <g id="编组-18" transform="translate(195.328528, 78.614731) rotate(1.000000) translate(-195.328528, -78.614731) translate(134.828528, 29.614731)">
                    <path d="M115.897728,5.82260136 L113.650379,76.6581794 L12.6900388,96.4222169 L5.92148779,93.1846078 C3.31974811,91.9401145 1.64479608,89.3347176 1.59445112,86.453879 L0.447760977,20.8379883 C0.447760977,16.3704965 4.64531743,12.5730329 9.07457489,11.9444815 L97.9446136,0.545108633 C100.826902,0.175397091 103.755687,0.587328167 106.423672,1.73768066 L115.897728,5.82260136 Z" id="形状结合" fill="url(#linearGradient-29)"></path>
                    <g id="路径-52" transform="translate(9.274483, 5.257585)">
                        <mask id="mask-32" fill="white">
                            <use xlink:href="#path-31"></use>
                        </mask>
                        <use id="蒙版" fill="url(#linearGradient-30)" xlink:href="#path-31"></use>
                        <path d="M108.790898,3.52558327 C108.808877,3.66490817 108.819117,3.80512062 108.821571,3.94557661 L110.046737,73.9857633 C110.079236,75.9116482 108.666697,77.5588813 106.756254,77.8216116 L5.89295726,91.6926621 C3.80867906,91.9792989 1.88639672,90.5240273 1.59941948,88.442222 C1.5787372,88.2921876 1.5670417,88.1410536 1.56439539,87.9896267 L0.352947247,18.7675665 C0.303870949,15.8599109 2.44996728,13.3790229 5.33763356,13.0072759 L104.52565,0.238195841 C106.612331,-0.0304353575 108.521948,1.44137813 108.790898,3.52558327 Z M107.830683,3.5413262 C107.579449,2.03452815 106.176837,0.984748194 104.647395,1.18164265 L5.45937796,13.9507228 C3.05306636,14.260502 1.26442842,16.3279117 1.30603651,18.7509528 L2.51663129,87.9730251 C2.51861602,88.0865952 2.52738765,88.1999457 2.54289936,88.3124716 C2.75813229,89.8738255 4.19984404,90.9652792 5.76305269,90.7503017 L106.62635,76.8792512 C108.059155,76.6822072 109.118733,75.4467346 109.094771,74.0023729 L107.869336,3.96217823 C107.868108,3.89195023 107.864286,3.82180342 107.857879,3.7518809 L107.84633,3.64718323 L107.830683,3.5413262 Z" id="蒙版" fill="url(#linearGradient-33)" fill-rule="nonzero" mask="url(#mask-32)"></path>
                    </g>
                </g>
                <path d="M155.016101,55.1578467 L244.53991,44.664966 C245.584712,44.5425071 246.531082,45.289209 246.653686,46.3327713 C246.662332,46.4063662 246.666667,46.4804028 246.666667,46.5545027 L246.666667,83.4462394 L246.604844,83.7160295 C246.502738,84.1440687 246.405286,84.4640529 246.312488,84.6759823 C246.20113,84.9302975 246.010929,85.2243777 245.741884,85.558223 L229.351291,107.320243 L229.111494,107.511703 C228.766519,107.781961 228.487781,107.976021 228.275283,108.093882 C228.015562,108.237934 227.645546,108.384216 227.165234,108.532726 L155.46009,116.937122 C154.415288,117.05958 153.468918,116.312879 153.346314,115.269316 C153.337668,115.195721 153.333333,115.121685 153.333333,115.047585 L153.333333,57.0473834 C153.333333,56.0824361 154.056591,55.2703086 155.016101,55.1578467 Z" id="矩形" fill="#FFFFFF" opacity="0.94"></path>
                <path d="M226.8947,90.2748066 L226.964813,90.1827118 C227.938994,88.9541505 228.646771,90.2431225 234.674062,89.6889693 C238.96461,89.1708619 241.242354,87.8384081 241.507294,85.6916081 C241.551244,86.7230368 240.85706,88.1810338 239.424745,90.065599 C237.276271,92.8924468 233.929971,101.390558 231.458559,104.829531 C229.810951,107.12218 228.289665,108.340585 226.8947,108.484747 C228.19752,106.333399 228.603332,102.969738 228.112134,98.3937651 C227.375338,91.5298059 225.881095,91.6578872 226.8947,90.2748066 Z" id="矩形" fill="#A4B3C0" opacity="0.62093099" filter="url(#filter-34)"></path>
                <path d="M228.260778,88.9282643 L228.298082,88.8771836 C229.572945,87.1560315 230.319779,88.853095 238.075778,88.143176 C243.468598,87.4957801 246.332295,85.8367461 246.666869,83.1660738 C246.721272,84.4490845 245.847749,86.2632153 244.0463,88.6084663 L243.740752,89.0077972 C240.948825,92.6696043 235.752593,99.810887 232.757163,103.934809 C230.684854,106.787836 228.772104,108.304482 227.018914,108.484747 C229.502337,107.83737 230.436926,104.667734 229.822679,98.9758405 L229.766282,98.4739233 C228.837027,90.525602 227.08493,90.5623072 228.260778,88.9282643 L228.260778,88.9282643 Z" id="矩形" fill="url(#linearGradient-35)"></path>
                <g id="编组-14" transform="translate(200.195770, 79.960570) rotate(3.000000) translate(-200.195770, -79.960570) translate(151.415282, 40.936180)">
                    <path d="M5.04913329,22.6617828 C5.79512685,22.9183442 6.67751569,22.3209554 7.02000393,21.3274774 C7.36249217,20.3339995 7.03538648,19.3206423 6.28939293,19.0640809 C5.54339937,18.8075195 4.66101053,19.4049084 4.31852229,20.3983863 C3.97603404,21.3918643 4.30313973,22.4052214 5.04913329,22.6617828 Z" id="椭圆形" fill="#B0C1D0"></path>
                    <path d="M4.31852229,20.3983863 C4.66101053,19.4049084 5.54339937,18.8075195 6.28939293,19.0640809 C7.03538648,19.3206423 7.36249217,20.3339995 7.02000393,21.3274774 C6.67751569,22.3209554 5.79512685,22.9183442 5.04913329,22.6617828 C4.30313973,22.4052214 3.97603404,21.3918643 4.31852229,20.3983863 Z M4.58867045,20.4912954 C4.29269195,21.3498596 4.56500181,22.193462 5.14215276,22.3919552 C5.71930372,22.5904484 6.45387726,22.0931324 6.74985577,21.2345683 C7.04583427,20.3760042 6.77352441,19.5324018 6.19637345,19.3339086 C5.6192225,19.1354153 4.88464896,19.6327313 4.58867045,20.4912954 Z" id="椭圆形" fill="url(#linearGradient-36)" fill-rule="nonzero"></path>
                    <path d="M88.6959774,8.28139615 C89.4419709,8.53795757 90.3243598,7.94056869 90.666848,6.94709075 C91.0093363,5.9536128 90.6822306,4.94025567 89.936237,4.68369425 C89.1902435,4.42713284 88.3078546,5.02452172 87.9653664,6.01799966 C87.6228781,7.01147761 87.9499838,8.02483474 88.6959774,8.28139615 Z" id="椭圆形" fill="#B0C1D0"></path>
                    <path d="M87.9653664,6.01799966 C88.3078546,5.02452172 89.1902435,4.42713284 89.936237,4.68369425 C90.6822306,4.94025567 91.0093363,5.9536128 90.666848,6.94709075 C90.3243598,7.94056869 89.4419709,8.53795757 88.6959774,8.28139615 C87.9499838,8.02483474 87.6228781,7.01147761 87.9653664,6.01799966 Z M88.2059651,6.20281183 C87.9593756,7.02890737 88.2324584,7.82016433 88.7889968,8.01156851 C89.3661478,8.21006174 90.1007213,7.71274576 90.3966998,6.85418164 C90.6926784,5.99561751 90.4203685,5.15201512 89.8432175,4.9535219 C89.2874425,4.76238027 88.5856899,5.2164609 88.2701757,6.01701637 L88.2355145,6.11090877 L88.2059651,6.20281183 Z" id="椭圆形" fill="url(#linearGradient-36)" fill-rule="nonzero"></path>
                    <path d="M8.38505278,74.5378028 C9.17393177,74.5375146 9.81375602,73.6853946 9.8141404,72.6345394 C9.81452444,71.5836843 9.17532313,70.7320315 8.38644413,70.7323196 C7.59756514,70.7326079 6.9577409,71.5847278 6.95735651,72.635583 C6.95697247,73.6864381 7.59617378,74.5380909 8.38505278,74.5378028 Z" id="椭圆形" fill="#B0C1D0" transform="translate(8.385748, 72.635061) rotate(19.000000) translate(-8.385748, -72.635061) "></path>
                    <path d="M7.03500763,72.1705157 C7.37749588,71.1770377 8.25988472,70.5796488 9.00587827,70.8362103 C9.75187183,71.0927717 10.0789775,72.1061288 9.73648928,73.0996067 C9.39400104,74.0930847 8.5116122,74.6904736 7.76561864,74.4339122 C7.01962508,74.1773507 6.69251939,73.1639936 7.03500763,72.1705157 Z M7.3051558,72.2634248 C7.00917729,73.1219889 7.28148716,73.9655913 7.85863811,74.1640845 C8.43578906,74.3625777 9.17036261,73.8652618 9.46634111,73.0066976 C9.76231962,72.1481335 9.49000976,71.3045311 8.9128588,71.1060379 C8.33570785,70.9075447 7.6011343,71.4048606 7.3051558,72.2634248 Z" id="椭圆形" fill="url(#linearGradient-36)" fill-rule="nonzero"></path>
                </g>
                <g id="编组-15" transform="translate(309.473285, 109.318125) rotate(3.000000) translate(-309.473285, -109.318125) translate(295.245642, 93.057962)">
                    <g id="编组-19" opacity="0.385649182" transform="translate(14.162129, 16.376772) rotate(21.000000) translate(-14.162129, -16.376772) translate(4.406031, 2.962138)">
                        <path d="M10.258129,18.8758919 C9.55917782,20.4452898 8.95119102,21.5512112 8.43416857,22.1936562 C7.91714612,22.8361011 7.11609504,23.3422714 6.03101534,23.7121669 L10.1390357,25.8757645 C10.0056398,24.9440212 10.0460015,24.0704015 10.2601209,23.2549053 C10.4742404,22.4394092 10.9645127,21.2158704 11.7309378,19.5842891 L10.258129,18.8758919 Z" id="路径-96" fill="url(#linearGradient-37)" transform="translate(8.880977, 22.375828) rotate(-25.000000) translate(-8.880977, -22.375828) "></path>
                        <polygon id="路径" fill="#BFCDD9" fill-rule="nonzero" transform="translate(9.491683, 17.744788) rotate(-316.000000) translate(-9.491683, -17.744788) " points="7.57511995 19.0282092 8.84499193 19.6167667 11.4082451 17.2167412 10.914597 15.8728091"></polygon>
                        <path d="M2.9491767,15.6389899 C2.9491767,15.6389899 2.36216861,16.7826114 3.22350891,18.5422613 C4.0851674,20.3020702 7.08003031,22.9659781 7.08003025,22.9659781 L7.96436088,18.6447606 L2.9491767,15.6389899 Z M9.25344778,9.74456773 C9.25344778,9.74456773 10.4346633,9.23513053 12.1355867,10.2091118 C13.8367884,11.1837288 16.3012837,14.3442018 16.3012837,14.3442018 L11.9260091,14.9407236 L9.25344778,9.74456773 Z" id="形状" fill="#BFCDD9" fill-rule="nonzero" transform="translate(9.527578, 16.288692) rotate(-316.000000) translate(-9.527578, -16.288692) "></path>
                        <path d="M9.94375789,9.44417176 L15.3977065,14.2729593 L12.6163192,14.6403277 L9.94375789,9.44417176 Z M3.60337059,15.3727603 L8.06782199,21.1262658 L8.61839562,18.3785708 L3.60337059,15.3727603 Z" id="形状" fill="#DEEAF4" fill-rule="nonzero" transform="translate(9.500539, 15.285219) rotate(-316.000000) translate(-9.500539, -15.285219) "></path>
                        <path d="M9.6343155,17.9095663 L9.6343155,-3.09228199e-11 C16.8825275,6.42473132 13.3848289,15.12213 12.2695879,17.415836 L12.2365355,17.4833732 L12.1739464,17.6088159 C12.075858,17.8028515 11.8653021,17.9305296 11.6299769,17.9415587 L11.5855845,17.9422474 L9.6343155,17.9095663 L9.6343155,-3.09228199e-11 L9.6343155,17.9095663 Z M9.6343155,-3.09228199e-11 L9.6343155,17.9095663 L7.40353879,17.8774218 C7.15046952,17.8734611 6.9236054,17.73522 6.82559723,17.5257554 L6.73461103,17.3284748 L6.63303256,17.1015984 C5.47543757,14.473274 2.41475987,6.01009719 9.6343155,-3.09228199e-11 Z" id="形状" fill="url(#linearGradient-38)" fill-rule="nonzero"></path>
                        <path d="M6.69736599,12.3392903 L6.69577686,12.3377011 L6.69609392,12.339291 C6.69577611,12.3389732 6.69514005,12.3389736 6.69482218,12.3386557 L6.69641155,12.3399268 C6.79071846,13.2556579 7.08105185,13.9612276 7.71949678,14.5391486 L12.2898898,18.4023959 L12.3772356,18.3204169 L8.82376672,13.5057984 C8.28905511,12.8301473 7.604115,12.4941395 6.69736599,12.3392903 L6.69736599,12.3392903 Z" id="路径" fill="#A1B0BD" fill-rule="nonzero" transform="translate(9.536029, 15.370048) rotate(-316.000000) translate(-9.536029, -15.370048) "></path>
                        <path d="M8.30880061,5.28919447 C7.76396548,5.79912762 7.50437956,6.53089785 7.62784471,7.2088027 C7.75130986,7.88670754 8.23906459,8.40773408 8.90734194,8.57557983 C9.57561929,8.74342557 10.3228693,8.53258506 10.8675573,8.02249478 C11.4123925,7.51256163 11.6719784,6.7807914 11.5485133,6.10288655 C11.4250481,5.42498171 10.9372934,4.90395517 10.269016,4.73610942 C9.60073867,4.56826368 8.85348865,4.77910419 8.30880061,5.28919447 L8.30880061,5.28919447 Z" id="路径" fill="#ADBECC" fill-rule="nonzero" transform="translate(9.588179, 6.655845) rotate(-316.000000) translate(-9.588179, -6.655845) "></path>
                        <path d="M8.63981534,5.6432091 C8.0164246,6.22675272 7.93512922,7.15286152 8.45823703,7.71173102 C8.98134485,8.27060051 9.91076556,8.25059818 10.5341563,7.66705456 C11.157547,7.08351095 11.2388424,6.15740214 10.7157346,5.59853265 C10.1926268,5.03966315 9.26320608,5.05966548 8.63981534,5.6432091 L8.63981534,5.6432091 Z" id="路径" fill="#F2F6FA" fill-rule="nonzero" transform="translate(9.586986, 6.655132) rotate(-316.000000) translate(-9.586986, -6.655132) "></path>
                    </g>
                    <path d="M7.20760708,26.024028 L6.9371628,23.3450585 L7.94069652,25.1222927 L8.93032994,23.212902 L8.93032994,25.8516288 L10.6900909,24.3896543 L10.0229422,26.3646779 L12.5635988,23.8623439 L11.7585351,26.7310824 L14.5562104,25.1222927 L12.106442,28.0483255 C11.0836627,27.6194753 10.2916296,27.2883297 9.73034255,27.0548888 C9.16905553,26.8214478 8.32814371,26.4778276 7.20760708,26.024028 Z" id="路径-97" fill="#E4ECF2"></path>
                </g>
                <path d="M87.4276553,49.9972811 L101.723948,58.2414563 C102.407223,58.6354774 102.64133,59.5081413 102.246841,60.1906058 C101.852352,60.8730703 100.978651,61.1068999 100.295376,60.7128789 L85.9990839,52.4687037 C85.3158087,52.0746826 85.0817014,51.2020186 85.4761905,50.5195542 C85.8706796,49.8370897 86.7443802,49.6032601 87.4276553,49.9972811 Z" id="矩形" fill="url(#linearGradient-39)" opacity="0.7"></path>
                <path d="M279.808608,48.5704046 L294.1049,56.8145798 C294.788175,57.2086009 295.022283,58.0812649 294.627794,58.7637293 C294.233304,59.4461938 293.359604,59.6800234 292.676329,59.2860024 L278.380036,51.0418272 C277.696761,50.6478061 277.462654,49.7751422 277.857143,49.0926777 C278.251632,48.4102132 279.125333,48.1763836 279.808608,48.5704046 Z" id="矩形" fill-opacity="0.8" fill="url(#linearGradient-39)" opacity="0.7"></path>
                <path d="M150.695733,8.79739158 L162.60931,15.6675376 C163.178706,15.9958885 163.373795,16.7231084 163.045054,17.2918288 C162.716313,17.8605492 161.988229,18.0554072 161.418833,17.7270564 L149.505256,10.8569104 C148.93586,10.5285595 148.740771,9.80133952 149.069512,9.23261911 C149.398253,8.6638987 150.126337,8.4690407 150.695733,8.79739158 Z" id="矩形" fill="url(#linearGradient-40)" opacity="0.7"></path>
                <g id="编组-16" transform="translate(201.230112, 80.495443) rotate(1.000000) translate(-201.230112, -80.495443) translate(190.972370, 64.287454)" fill="#A5B1C0" fill-rule="nonzero" opacity="0.819452195">
                    <path d="M15.1769236,17.1764643 C16.5928506,16.0145314 20.5580126,13.5101008 20.5151379,8.37611959 C20.4722632,3.24213842 16.2581981,0.297629424 12.7422406,0.0386720799 C9.219352,-0.219004341 5.24266075,0.772051962 2.57258966,4.18880134 C0.176074235,7.24547599 -0.0357191698,9.49301033 0.00403533645,14.2533698 L5.31884042,13.5136654 L5.30960283,12.4075203 C5.28844696,9.87423406 5.54958602,7.15934773 9.06736042,5.93662881 C10.9821599,5.27381098 12.788983,5.63579504 13.8736071,6.56968987 C15.1115877,7.6242353 15.1419794,10.3954448 13.2065812,12.0490192 L10.1579176,14.6133006 C8.38785303,16.034193 7.78106466,17.4277772 7.79716615,19.3558393 L7.8509588,25.7971805 L13.2782275,25.0418236 L13.2419092,20.692928 C13.2321113,19.5196903 13.7607532,18.3386842 15.1769236,17.1764643 Z" id="路径"></path>
                    <polygon id="路径" points="13.3027702 26.19463 7.95983944 27.0214246 8.01425193 32.4159786 13.3510305 31.5832142"></polygon>
                </g>
            </g>
        </g>
    </g>
</svg>