<?xml version="1.0" encoding="UTF-8"?>
<svg width="400px" height="206px" viewBox="0 0 400 206" version="1.1" xmlns="http://www.w3.org/2000/svg" xmlns:xlink="http://www.w3.org/1999/xlink">
    <title> default_List Page no data_nor</title>
    <defs>
        <rect id="path-1" x="0" y="0" width="400" height="206"></rect>
        <linearGradient x1="50%" y1="19.3797562%" x2="50%" y2="-4.26202965%" id="linearGradient-3">
            <stop stop-color="#FFFFFF" stop-opacity="0" offset="0%"></stop>
            <stop stop-color="#C3D1DB" offset="100%"></stop>
        </linearGradient>
        <polygon id="path-4" points="6.57894737 0 13.1578947 25.3955747 6.57894737 26.3493103 0 25.3955747"></polygon>
        <linearGradient x1="53.4115961%" y1="45.3566275%" x2="58.9031399%" y2="50.6660497%" id="linearGradient-6">
            <stop stop-color="#FFFFFF" stop-opacity="0" offset="0%"></stop>
            <stop stop-color="#B0C1D0" offset="100%"></stop>
        </linearGradient>
        <linearGradient x1="61.9882876%" y1="43.1367927%" x2="70.2659472%" y2="50.7974628%" id="linearGradient-7">
            <stop stop-color="#FFFFFF" stop-opacity="0" offset="0%"></stop>
            <stop stop-color="#B0C1D0" offset="100%"></stop>
        </linearGradient>
        <linearGradient x1="65.4422521%" y1="47.7685737%" x2="74.7233681%" y2="50.9577156%" id="linearGradient-8">
            <stop stop-color="#FFFFFF" stop-opacity="0" offset="0%"></stop>
            <stop stop-color="#B0C1D0" offset="100%"></stop>
        </linearGradient>
        <linearGradient x1="63.5072625%" y1="0%" x2="34.8835817%" y2="151.700901%" id="linearGradient-9">
            <stop stop-color="#F0F8FF" offset="0%"></stop>
            <stop stop-color="#B0C1D0" offset="100%"></stop>
        </linearGradient>
        <linearGradient x1="46.6345833%" y1="42.3632986%" x2="41.7296392%" y2="40.4469965%" id="linearGradient-10">
            <stop stop-color="#FFFFFF" stop-opacity="0" offset="0%"></stop>
            <stop stop-color="#FFFFFF" offset="100%"></stop>
        </linearGradient>
        <linearGradient x1="50.9225082%" y1="50%" x2="49.3119381%" y2="47.0135929%" id="linearGradient-11">
            <stop stop-color="#C7D0D9" offset="0%"></stop>
            <stop stop-color="#96A3B1" offset="100%"></stop>
        </linearGradient>
        <polygon id="path-12" points="-9.09494702e-13 -6.78825756e-13 -9.09494702e-13 74.076801 9.16597853 78.1358038 9.16597853 4.0590028"></polygon>
        <linearGradient x1="13.3402635%" y1="42.3412668%" x2="87.8633374%" y2="57.6673081%" id="linearGradient-14">
            <stop stop-color="#FFFFFF" stop-opacity="0" offset="0%"></stop>
            <stop stop-color="#FFFFFF" offset="100%"></stop>
        </linearGradient>
        <linearGradient x1="76.1315296%" y1="0%" x2="20.7553525%" y2="151.700901%" id="linearGradient-15">
            <stop stop-color="#F0F8FF" offset="0%"></stop>
            <stop stop-color="#B0C1D0" offset="100%"></stop>
        </linearGradient>
        <linearGradient x1="41.9782539%" y1="57.4415268%" x2="33.9999276%" y2="53.6829992%" id="linearGradient-16">
            <stop stop-color="#FFFFFF" stop-opacity="0" offset="0%"></stop>
            <stop stop-color="#FFFFFF" offset="100%"></stop>
        </linearGradient>
        <linearGradient x1="58.5772436%" y1="0%" x2="40.4009268%" y2="151.700901%" id="linearGradient-17">
            <stop stop-color="#F0F8FF" offset="0%"></stop>
            <stop stop-color="#B0C1D0" offset="100%"></stop>
        </linearGradient>
        <linearGradient x1="47.8906342%" y1="45.9086526%" x2="44.7482401%" y2="44.4946937%" id="linearGradient-18">
            <stop stop-color="#FFFFFF" stop-opacity="0" offset="0%"></stop>
            <stop stop-color="#FFFFFF" offset="100%"></stop>
        </linearGradient>
        <linearGradient x1="50%" y1="5.97437292%" x2="50%" y2="89.0646491%" id="linearGradient-19">
            <stop stop-color="#C7D0D9" offset="0%"></stop>
            <stop stop-color="#96A3B1" offset="100%"></stop>
        </linearGradient>
        <polygon id="path-20" points="31.5717038 3.60511869e-15 40.7376824 4.0590028 9.16597853 7.61063024 0 3.55162745"></polygon>
        <linearGradient x1="50%" y1="47.1340826%" x2="62.9411518%" y2="53.6474298%" id="linearGradient-22">
            <stop stop-color="#E1E7ED" stop-opacity="0" offset="0%"></stop>
            <stop stop-color="#B0C1D0" offset="100%"></stop>
        </linearGradient>
        <linearGradient x1="13.3402635%" y1="42.3791406%" x2="87.8633374%" y2="57.629392%" id="linearGradient-23">
            <stop stop-color="#FFFFFF" stop-opacity="0" offset="0%"></stop>
            <stop stop-color="#FFFFFF" offset="100%"></stop>
        </linearGradient>
        <linearGradient x1="50%" y1="5.97437292%" x2="50%" y2="89.0646491%" id="linearGradient-24">
            <stop stop-color="#C7D0D9" offset="0%"></stop>
            <stop stop-color="#96A3B1" offset="100%"></stop>
        </linearGradient>
        <linearGradient x1="50%" y1="5.66540664%" x2="-6.44538608%" y2="78.7362102%" id="linearGradient-25">
            <stop stop-color="#D2DEE9" offset="0%"></stop>
            <stop stop-color="#B0BCCA" offset="100%"></stop>
        </linearGradient>
        <linearGradient x1="78.7143009%" y1="27.1840556%" x2="-16.2593183%" y2="91.7851312%" id="linearGradient-26">
            <stop stop-color="#E7EEF3" offset="0%"></stop>
            <stop stop-color="#CBD9E4" offset="100%"></stop>
        </linearGradient>
        <linearGradient x1="35.961331%" y1="59.1156626%" x2="0%" y2="17.2124425%" id="linearGradient-27">
            <stop stop-color="#FFFFFF" stop-opacity="0" offset="0%"></stop>
            <stop stop-color="#FFFFFF" offset="100%"></stop>
        </linearGradient>
        <path d="M5.53283802,6.28335101 C6.04902266,5.87496467 7.49454611,5.00386786 7.47891589,3.13638388 C7.46328567,1.26889991 5.92702308,0.155911294 4.64525979,0.0265528068 C3.36096976,-0.102409211 1.91124325,0.218209294 0.937852905,1.4340456 C0.0641889126,2.52167243 -0.0130216364,3.33690506 0.00147110597,5.06848427 L1.939015,4.85266453 L1.93564738,4.45030464 C1.92793488,3.52882257 2.02313468,2.54412368 3.30556032,2.13466492 C4.0036119,1.9127821 4.66230003,2.06250446 5.0577062,2.41298428 C5.50901944,2.80887528 5.5200989,3.81697437 4.81453796,4.39895562 L3.70312943,5.30098965 C3.05784185,5.80000685 2.83663353,6.30073399 2.84250343,7.00206598 L2.86211386,9.34510173 L4.84065704,9.12471514 L4.82741699,7.5428058 C4.82384511,7.11604097 5.01656465,6.69183924 5.53283802,6.28335101 Z" id="path-28"></path>
        <polygon id="path-30" points="1.99354192 0.0233910649 0.0457446657 0.270601106 0.0655810631 2.23296205 2.01113551 1.98351946"></polygon>
        <linearGradient x1="33.5446099%" y1="58.023124%" x2="115.807148%" y2="43.7458616%" id="linearGradient-32">
            <stop stop-color="#FFFFFF" stop-opacity="0" offset="0%"></stop>
            <stop stop-color="#C3D1DB" offset="100%"></stop>
        </linearGradient>
        <ellipse id="path-33" cx="86.4870301" cy="161.701094" rx="24.0880858" ry="16.0225029"></ellipse>
        <filter x="-0.0%" y="-0.0%" width="100.0%" height="100.0%" filterUnits="objectBoundingBox" id="filter-34">
            <feGaussianBlur stdDeviation="0" in="SourceGraphic"></feGaussianBlur>
        </filter>
        <filter x="-17.6%" y="-26.5%" width="135.3%" height="153.1%" filterUnits="objectBoundingBox" id="filter-35">
            <feGaussianBlur stdDeviation="5" in="SourceAlpha" result="shadowBlurInner1"></feGaussianBlur>
            <feOffset dx="-1" dy="7" in="shadowBlurInner1" result="shadowOffsetInner1"></feOffset>
            <feComposite in="shadowOffsetInner1" in2="SourceAlpha" operator="arithmetic" k2="-1" k3="1" result="shadowInnerInner1"></feComposite>
            <feColorMatrix values="0 0 0 0 0.587001636   0 0 0 0 0.691139775   0 0 0 0 0.884539176  0 0 0 0.2 0" type="matrix" in="shadowInnerInner1"></feColorMatrix>
        </filter>
        <linearGradient x1="0%" y1="50%" x2="114.632179%" y2="50%" id="linearGradient-36">
            <stop stop-color="#FFFFFF" stop-opacity="0" offset="0%"></stop>
            <stop stop-color="#C3D1DB" offset="100%"></stop>
        </linearGradient>
        <ellipse id="path-37" cx="309.523354" cy="136.02254" rx="11.8966035" ry="5.04360421"></ellipse>
        <filter x="-0.0%" y="-0.0%" width="100.0%" height="100.0%" filterUnits="objectBoundingBox" id="filter-38">
            <feGaussianBlur stdDeviation="0" in="SourceGraphic"></feGaussianBlur>
        </filter>
        <filter x="-31.5%" y="-74.4%" width="163.0%" height="248.7%" filterUnits="objectBoundingBox" id="filter-39">
            <feGaussianBlur stdDeviation="5" in="SourceAlpha" result="shadowBlurInner1"></feGaussianBlur>
            <feOffset dx="-5" dy="2" in="shadowBlurInner1" result="shadowOffsetInner1"></feOffset>
            <feComposite in="shadowOffsetInner1" in2="SourceAlpha" operator="arithmetic" k2="-1" k3="1" result="shadowInnerInner1"></feComposite>
            <feColorMatrix values="0 0 0 0 0.587001636   0 0 0 0 0.691139775   0 0 0 0 0.884539176  0 0 0 0.198563156 0" type="matrix" in="shadowInnerInner1"></feColorMatrix>
        </filter>
        <linearGradient x1="34.7564677%" y1="23.1100194%" x2="100%" y2="70.2142791%" id="linearGradient-40">
            <stop stop-color="#FFFFFF" stop-opacity="0" offset="0%"></stop>
            <stop stop-color="#C3D1DB" offset="100%"></stop>
        </linearGradient>
        <filter x="-0.0%" y="-0.0%" width="100.0%" height="100.0%" filterUnits="objectBoundingBox" id="filter-41">
            <feGaussianBlur stdDeviation="0" in="SourceGraphic"></feGaussianBlur>
        </filter>
        <polygon id="path-42" points="3.7593985 0 7.51879699 14.511757 3.7593985 15.0567488 0 14.511757"></polygon>
        <linearGradient x1="42.8077163%" y1="88.8669545%" x2="69.2126529%" y2="8.0103492%" id="linearGradient-44">
            <stop stop-color="#EFF5FE" offset="0%"></stop>
            <stop stop-color="#D2DEE9" offset="100%"></stop>
        </linearGradient>
        <linearGradient x1="0%" y1="55.0616573%" x2="97.6144675%" y2="55.0616573%" id="linearGradient-45">
            <stop stop-color="#DBE7F1" offset="0%"></stop>
            <stop stop-color="#BAC5CF" offset="100%"></stop>
        </linearGradient>
        <linearGradient x1="84.2617012%" y1="50%" x2="-9.39664587%" y2="50%" id="linearGradient-46">
            <stop stop-color="#E6EDF2" stop-opacity="0" offset="0%"></stop>
            <stop stop-color="#D2DEE9" offset="100%"></stop>
        </linearGradient>
        <linearGradient x1="84.2617012%" y1="50%" x2="-9.39664587%" y2="50%" id="linearGradient-47">
            <stop stop-color="#E6EDF2" stop-opacity="0" offset="0%"></stop>
            <stop stop-color="#D2DEE9" offset="100%"></stop>
        </linearGradient>
    </defs>
    <g id="设计说明" stroke="none" stroke-width="1" fill="none" fill-rule="evenodd">
        <g id="页面模块空状态" transform="translate(-984.000000, -362.000000)">
            <g id="-default_List-Page-no-data_nor" transform="translate(984.000000, 362.000000)">
                <g id="椭圆形">
                    <mask id="mask-2" fill="white">
                        <use xlink:href="#path-1"></use>
                    </mask>
                    <g id="蒙版"></g>
                    <ellipse fill="url(#linearGradient-3)" opacity="0.4" mask="url(#mask-2)" cx="200" cy="332.307239" rx="238.095238" ry="236.757794"></ellipse>
                </g>
                <g id="编组-25" transform="translate(66.741971, 116.033102) rotate(-1.000000) translate(-66.741971, -116.033102) translate(54.075304, 100.749231)">
                    <polygon id="路径-55" fill="#E7ECF0" fill-rule="nonzero" points="18.0289826 26.4329833 20.1875936 30.2091207 21.0151524 29.7394737 18.8565414 25.9633364"></polygon>
                    <g id="路径-54" transform="translate(12.466433, 15.242485) rotate(-29.000000) translate(-12.466433, -15.242485) translate(5.799767, 1.952162)">
                        <mask id="mask-5" fill="white">
                            <use xlink:href="#path-4"></use>
                        </mask>
                        <use id="蒙版" fill="#F6F8FA" xlink:href="#path-4"></use>
                        <polygon fill="#E7ECF0" mask="url(#mask-5)" points="6.57894737 -5.6568813e-14 6.57894737 26.6221298 14.2598433 26.024884"></polygon>
                    </g>
                </g>
                <polygon id="路径-26" fill="url(#linearGradient-6)" opacity="0.697172619" points="140.592764 137.538184 86.6666667 122.680131 102.636832 115.785953 172.164468 133.986556"></polygon>
                <polygon id="路径-26" fill="url(#linearGradient-7)" points="183.36733 132.971805 111.59164 114.294861 137.269565 109.724615 214.939034 129.420178"></polygon>
                <polygon id="路径-26" fill="url(#linearGradient-8)" points="231.280704 127.915517 122.814962 108.619172 146.422198 103.820415 257.661762 124.660048"></polygon>
                <g id="编组-51" transform="translate(237.014173, 86.227333) rotate(-8.000000) translate(-237.014173, -86.227333) translate(216.347506, 45.027333)">
                    <g id="编组-9" transform="translate(9.165979, 4.059003)">
                        <polygon id="矩形" fill="url(#linearGradient-9)" points="0 3.55162745 31.5717038 5.25229135e-13 31.5717038 74.076801 0 77.6284285"></polygon>
                        <path d="M31.5717038,1.06066524e-12 L31.5717038,74.076801 L0,77.6284285 L0,3.55162745 L31.5717038,1.06066524e-12 Z M30.6193229,1.06209509 L0.952380952,4.39944824 L0.952380952,76.5663334 L30.6193229,73.2289802 L30.6193229,1.06209509 Z" id="矩形" fill="url(#linearGradient-10)" fill-rule="nonzero"></path>
                    </g>
                    <g id="路径-22" transform="translate(0.000000, 3.551627)">
                        <mask id="mask-13" fill="white">
                            <use xlink:href="#path-12"></use>
                        </mask>
                        <use id="蒙版" fill="url(#linearGradient-11)" xlink:href="#path-12"></use>
                    </g>
                    <polygon id="路径-118" fill="#D1DBE4" points="2.72848411e-12 3.55162745 9.16597853 7.61063024 40.7376824 4.0590028 31.5717038 0"></polygon>
                    <polygon id="路径-109" fill="url(#linearGradient-14)" points="2.72848411e-12 3.55162745 2.72848411e-12 4.03068637 9.16597853 8.10908661 9.16597853 7.61063024 9.83011197 7.54127026 0.544345123 3.47332807"></polygon>
                </g>
                <g id="编组-6" transform="translate(140.592764, 81.726895)">
                    <polygon id="矩形" fill="url(#linearGradient-15)" points="4.61852778e-13 3.55162745 31.5717038 5.10685639e-13 31.5717038 52.259661 4.61852778e-13 55.8112885"></polygon>
                    <path d="M31.5717038,8.48532195e-14 L31.5717038,52.259661 L4.54747351e-13,55.8112885 L4.54747351e-13,3.55162745 L31.5717038,8.48532195e-14 Z M0.952380952,4.39944824 L0.952380952,54.7491934 L30.6193229,51.4118402 L30.6193229,1.06209509 L0.952380952,4.39944824 Z" id="矩形" fill="url(#linearGradient-16)" fill-rule="nonzero"></path>
                </g>
                <polygon id="矩形" fill="url(#linearGradient-17)" points="183.36733 39.1073657 214.939034 35.5557383 214.939034 129.420178 183.36733 132.971805"></polygon>
                <path d="M214.939034,35.5557383 L214.939034,129.420178 L183.36733,132.971805 L183.36733,39.1073657 L214.939034,35.5557383 Z M184.319711,39.9551865 L184.319711,131.90971 L213.986653,128.572357 L213.986653,36.6178334 L184.319711,39.9551865 Z" id="矩形" fill="url(#linearGradient-18)" fill-rule="nonzero"></path>
                <polygon id="路径-113" fill="url(#linearGradient-19)" points="131.426785 81.2195197 140.592764 85.2785225 140.592764 137.538184 131.426785 133.479181"></polygon>
                <g id="矩形" transform="translate(131.426785, 77.667892)">
                    <mask id="mask-21" fill="white">
                        <use xlink:href="#path-20"></use>
                    </mask>
                    <use id="蒙版" fill="#D1DBE4" xlink:href="#path-20"></use>
                    <path d="M-3.73582307,-1.09489917 L16.1388827,-3.59024457 C16.6463268,-3.65395611 17.4817543,-3.53763926 18.0048624,-3.33044363 L18.1033643,-3.2885269 L18.1033643,-3.2885269 L30.2795563,2.2971546 C30.7082875,2.49382986 30.6777199,2.68718011 30.2086186,2.74585874 L22.9025617,3.65975393 L20.6045276,5.23214957 L18.50827,4.39151082 L10.438004,5.4089637 C9.93106593,5.47287554 9.09565104,5.35677109 8.57205256,5.14963715 C8.53694717,5.13574956 8.50375669,5.12163469 8.47263448,5.10735775 L-3.80596266,-0.646295057 C-4.234415,-0.842842408 -4.20420018,-1.03609263 -3.73582307,-1.09489917 Z" fill="url(#linearGradient-22)" opacity="0.476748512" mask="url(#mask-21)"></path>
                </g>
                <polygon id="路径-109" fill="url(#linearGradient-23)" points="174.201352 35.0483629 174.201352 35.5274219 183.36733 39.6058221 183.36733 39.1073657 184.05586 39.0442239 174.745697 34.9700636"></polygon>
                <polygon id="路径-109" fill="url(#linearGradient-23)" points="131.426785 81.2195197 131.426785 81.6985787 140.592764 85.7769789 140.592764 85.2785225 141.281293 85.2153807 131.97113 81.1412204"></polygon>
                <polygon id="路径-115" fill="url(#linearGradient-24)" points="174.201352 128.912803 183.36733 132.971805 183.36733 39.1073657 174.201352 35.0483629"></polygon>
                <polygon id="路径-116" fill="#D1DBE4" points="174.201352 35.0483629 205.773055 31.4967355 214.939034 35.5557383 183.36733 39.1073657"></polygon>
                <polygon id="路径-109" fill="url(#linearGradient-23)" points="174.201352 35.0483629 174.201352 35.5274219 183.36733 39.6058221 183.36733 39.1073657 184.05586 39.0442239 174.745697 34.9700636"></polygon>
                <g id="编组-46" transform="translate(135.238095, 49.526387)">
                    <path d="M25.1903787,0.238885176 L27.7012765,1.36086 L26.542529,3.1693234 L25.6429161,2.12269658 L25.6429161,16.7901461 C25.6429161,17.3447407 25.2239689,17.8104465 24.6706736,17.8709003 L16.0533287,18.8124433 L13.5192727,20.4459582 L13.5197162,23.468609 L10.7469286,22.2337398 L10.7469286,19.3947903 L3.41923735,20.2088157 L3.51165045,21.5228549 L2.71029245,21.171315 C2.0285455,20.8700715 1.49208438,20.6265821 1.10090909,20.4408467 C0.300777822,20.0609335 0.00672232439,19.3962887 0.00672232439,18.3599513 L-5.54223334e-13,4.11007497 C-5.54223334e-13,3.27872401 0.627627194,2.58043783 1.45695117,2.48909858 L23.6314341,0.108828694 C24.0478557,0.0622371295 24.7528496,0.0393980488 25.1903787,0.238885176 Z" id="路径" fill="url(#linearGradient-25)"></path>
                    <g id="编组-8" transform="translate(2.772788, 1.054688)">
                        <path d="M1.18689994,2.69351218 L24.1631494,0.162977063 C24.8950747,0.0823650136 25.5539778,0.608444682 25.6348507,1.33800889 C25.6402236,1.38647823 25.6429161,1.4352056 25.6429161,1.48396992 L25.6429161,16.7480317 C25.6429161,17.4259896 25.1309681,17.9952789 24.4548659,18.0691507 L16.0533287,18.9871143 L10.7469286,22.4139207 L10.7469286,19.5694613 L1.48104751,20.599014 C0.749200753,20.6803311 0.0897878504,20.1548865 0.00820756538,19.4254005 C0.00274007188,19.3765105 9.23705556e-14,19.3273556 9.23705556e-14,19.2781628 L9.23705556e-14,4.01450503 C9.23705556e-14,3.33698787 0.511301769,2.76792053 1.18689994,2.69351218 Z" id="矩形" fill="url(#linearGradient-26)"></path>
                        <path d="M25.6371505,0.955343713 C25.6409914,0.9899644 25.6429161,1.02476953 25.6429161,1.05960109 L25.6429161,17.0887837 C25.6429161,17.57283 25.277262,17.9792946 24.7943498,18.0320582 L16.0533287,18.9871143 L10.7469286,22.4139207 L10.7469286,19.5694613 L1.05793278,20.6460272 C0.535187665,20.7041106 0.0641618601,20.3289638 0.00586719628,19.8081134 C0.00195874884,19.7731922 9.23705556e-14,19.7380817 9.23705556e-14,19.7029441 L9.23705556e-14,3.67405011 C9.23705556e-14,3.19031868 0.365192327,2.78401259 0.847744321,2.73086576 L24.5858985,0.116416742 C25.1086998,0.0588369847 25.5793613,0.434437383 25.6371505,0.955343713 Z M15.8891295,18.5277462 L24.7424425,17.560421 C24.9838986,17.5340392 25.1667256,17.3308068 25.1667256,17.0887837 L25.1660044,1.03349721 L25.1638429,1.0074724 C25.1349482,0.747019235 24.8996175,0.559219036 24.6382169,0.588008915 L0.900062637,3.20245793 C0.65878664,3.22903135 0.476190476,3.43218439 0.476190476,3.67405011 L0.476190476,19.7029441 C0.476190476,19.7205129 0.477169851,19.7380682 0.479124074,19.7555287 C0.508271406,20.015954 0.743784309,20.2035274 1.00515687,20.1744857 L11.2231191,19.0391451 L11.2231191,21.540997 L15.8891295,18.5277462 Z" id="矩形" fill="url(#linearGradient-27)" fill-rule="nonzero"></path>
                    </g>
                    <g id="编组-11" transform="translate(15.505170, 11.978425) rotate(1.000000) translate(-15.505170, -11.978425) translate(11.505170, 5.665522)">
                        <g id="路径" transform="translate(0.000000, -0.000000)">
                            <mask id="mask-29" fill="white">
                                <use xlink:href="#path-28"></use>
                            </mask>
                            <use id="蒙版" fill="#A5B1C0" fill-rule="nonzero" xlink:href="#path-28"></use>
                            <path d="M5.02140269,5.98582686 C5.53758733,5.57744052 6.98311078,4.70634371 6.96748056,2.83885973 C6.95185034,0.971375756 5.41558775,-0.141612855 4.13382447,-0.270971342 C2.84953443,-0.39993336 1.39980792,-0.0793148552 0.426417578,1.13652145 C-0.447246415,2.22414829 -0.524456963,3.03938091 -0.509964221,4.77096012 L1.42757967,4.55514038 L1.42421205,4.15278049 C1.41649955,3.23129843 1.51169936,2.24659954 2.79412499,1.83714077 C3.49217658,1.61525795 4.15086471,1.76498031 4.54627087,2.11546013 C4.99758411,2.51135113 5.00866357,3.51945022 4.30310263,4.10143147 L3.19169411,5.0034655 C2.54640652,5.5024827 2.3251982,6.00320984 2.3310681,6.70454183 L2.35067853,9.04757758 L4.32922172,8.82719099 L4.31598166,7.24528165 C4.31240978,6.81851682 4.50512932,6.39431509 5.02140269,5.98582686 Z" fill="#B0C1D0" fill-rule="nonzero" mask="url(#mask-29)"></path>
                        </g>
                        <g id="路径" transform="translate(2.856062, 9.520806)">
                            <mask id="mask-31" fill="white">
                                <use xlink:href="#path-30"></use>
                            </mask>
                            <use id="蒙版" fill="#A5B1C0" fill-rule="nonzero" xlink:href="#path-30"></use>
                            <polygon fill="#B0C1D0" fill-rule="nonzero" opacity="0.819452195" mask="url(#mask-31)" points="1.5031783 -0.31055232 -0.444618954 -0.0633422784 -0.424782557 1.89901866 1.52077189 1.64957607"></polygon>
                        </g>
                    </g>
                </g>
                <g id="椭圆形" opacity="0.3" filter="url(#filter-34)" transform="translate(86.487030, 161.701094) rotate(-27.000000) translate(-86.487030, -161.701094) ">
                    <use fill="url(#linearGradient-32)" fill-rule="evenodd" xlink:href="#path-33"></use>
                    <use fill="black" fill-opacity="1" filter="url(#filter-35)" xlink:href="#path-33"></use>
                </g>
                <g id="椭圆形" opacity="0.45" filter="url(#filter-38)" transform="translate(309.523354, 136.022540) rotate(-155.000000) translate(-309.523354, -136.022540) ">
                    <use fill="url(#linearGradient-36)" fill-rule="evenodd" xlink:href="#path-37"></use>
                    <use fill="black" fill-opacity="1" filter="url(#filter-39)" xlink:href="#path-37"></use>
                </g>
                <ellipse id="椭圆形" fill="url(#linearGradient-40)" opacity="0.3" filter="url(#filter-41)" transform="translate(249.166139, 179.019546) rotate(-156.000000) translate(-249.166139, -179.019546) " cx="249.166139" cy="179.019546" rx="14.8715146" ry="12.4599791"></ellipse>
                <g id="编组-25" transform="translate(94.463816, 109.616877) rotate(4.000000) translate(-94.463816, -109.616877) translate(87.130483, 100.645910)">
                    <polygon id="路径-55" fill="#E7ECF0" fill-rule="nonzero" points="10.1249417 15.2052005 11.3584337 17.3629933 12.1859925 16.8933463 10.9525005 14.7355536"></polygon>
                    <g id="路径-54" transform="translate(7.313344, 8.659410) rotate(-29.000000) translate(-7.313344, -8.659410) translate(3.313344, 1.017475)">
                        <mask id="mask-43" fill="white">
                            <use xlink:href="#path-42"></use>
                        </mask>
                        <use id="蒙版" fill="#F6F8FA" xlink:href="#path-42"></use>
                        <polygon fill="#E7ECF0" mask="url(#mask-43)" points="3.7593985 -5.6568813e-14 3.7593985 15.2126456 8.14848188 14.8713623"></polygon>
                    </g>
                </g>
                <g id="编组-15" transform="translate(309.735794, 108.792530) rotate(3.000000) translate(-309.735794, -108.792530) translate(295.735794, 92.844143)">
                    <g id="编组-19" opacity="0.385649182" transform="translate(13.754908, 15.909132) rotate(21.000000) translate(-13.754908, -15.909132) translate(4.088242, 2.951067)">
                        <path d="M8.64996354,18.5763442 C8.67975484,20.2898983 8.59611425,21.546076 8.39904175,22.3448774 C8.20196926,23.1436788 7.68988722,23.9390175 6.86279563,24.7308936 L11.5003023,24.9551059 C10.9856328,24.1689589 10.6530054,23.3621072 10.5024199,22.5345509 C10.3518344,21.7069945 10.2790822,20.3941064 10.2841633,18.5958863 L8.64996354,18.5763442 Z" id="路径-96" fill="url(#linearGradient-44)"></path>
                        <polygon id="路径" fill="#BFCDD9" fill-rule="nonzero" points="7.22148344 17.2943298 7.7261065 18.5966432 11.2371543 18.6506624 11.8156273 17.3441987"></polygon>
                        <path d="M2.9491767,15.6008159 C2.9491767,15.6008159 2.36216861,16.7416459 3.22350891,18.4970007 C4.0851674,20.252514 7.08003031,22.9099194 7.08003025,22.9099194 L7.96436088,18.5992498 L2.9491767,15.6008159 Z M9.25344778,9.72078178 C9.25344778,9.72078178 10.4346633,9.21258809 12.1355867,10.184192 C13.8367884,11.1564299 16.3012837,14.3091884 16.3012837,14.3091884 L11.9260091,14.9042542 L9.25344778,9.72078178 Z" id="形状" fill="#BFCDD9" fill-rule="nonzero" transform="translate(9.527578, 16.248932) rotate(-316.000000) translate(-9.527578, -16.248932) "></path>
                        <path d="M9.94375789,9.42111906 L15.3977065,14.2381197 L12.6163192,14.6045914 L9.94375789,9.42111906 Z M3.60337059,15.3352362 L8.06782199,21.0746978 L8.61839562,18.3337097 L3.60337059,15.3352362 Z" id="形状" fill="#DEEAF4" fill-rule="nonzero" transform="translate(9.500539, 15.247908) rotate(-316.000000) translate(-9.500539, -15.247908) "></path>
                        <path d="M9.6343155,17.8658501 L9.6343155,-3.07734343e-11 C16.8825275,6.4090489 13.3848289,15.0852177 12.2695879,17.3733249 L12.2365355,17.4406972 L12.1739464,17.5658338 C12.075858,17.7593957 11.8653021,17.8867622 11.6299769,17.8977644 L11.5855845,17.8984514 L9.6343155,17.8658501 L9.6343155,-3.07734343e-11 L9.6343155,17.8658501 Z M9.6343155,-3.07734343e-11 L9.6343155,17.8658501 L7.40353879,17.833784 C7.15046952,17.829833 6.9236054,17.6919293 6.82559723,17.482976 L6.73461103,17.286177 L6.63303256,17.0598543 C5.47543757,14.4379455 2.41475987,5.99542687 9.6343155,-3.07734343e-11 Z" id="形状" fill="url(#linearGradient-45)" fill-rule="nonzero"></path>
                        <path d="M6.70435582,12.3090828 L6.70277051,12.3074976 L6.70308526,12.3090851 C6.7027682,12.3087681 6.70213289,12.3087692 6.70181579,12.3084522 L6.70340173,12.3097197 C6.79648062,13.2241791 7.08561143,13.9285035 7.72259944,14.5049159 L12.282897,18.3577089 L12.3702399,18.275727 L8.82682909,13.4715239 C8.29357142,12.7973784 7.60984792,12.4626305 6.70435582,12.3090828 L6.70435582,12.3090828 Z" id="路径" fill="#A1B0BD" fill-rule="nonzero" transform="translate(9.536028, 15.332603) rotate(-316.000000) translate(-9.536028, -15.332603) "></path>
                        <path d="M9.61722617,4.77235034 C8.87107524,4.76071971 8.17601444,5.1059429 7.79391556,5.67795328 C7.41181669,6.24996366 7.40074263,6.96183978 7.76486567,7.5453745 C8.12898872,8.12890922 8.81297752,8.49542989 9.55913179,8.50684581 C10.3052827,8.51847644 11.0003435,8.17325325 11.3824424,7.60124287 C11.7645413,7.02923249 11.7756153,6.31735637 11.4114923,5.73382165 C11.0665336,5.18099928 10.4344932,4.82294853 9.73448582,4.77708373 L9.61722617,4.77235034 Z" id="路径" fill="#ADBECC" fill-rule="nonzero"></path>
                        <path d="M9.60858899,5.25639367 C8.75479576,5.24314863 8.05298753,5.85137476 8.04105642,6.61490476 C8.02912532,7.37843475 8.71158942,8.00813533 9.56538265,8.02138037 C10.4191759,8.03462541 11.1209841,7.42639928 11.1329152,6.66286928 C11.1444202,5.92660822 10.5102439,5.31478802 9.69938741,5.26014968 L9.60858899,5.25639367 Z" id="路径" fill="#F2F6FA" fill-rule="nonzero"></path>
                    </g>
                    <path d="M6.7314166,25.9605048 L6.46097232,23.2880745 L7.46450604,25.0609705 L8.45413946,23.1562405 L8.45413946,25.7885264 L10.2139004,24.3301205 L9.54675176,26.3003232 L12.0874083,23.8040972 L11.2823447,26.6658333 L14.0800199,25.0609705 L11.6302515,27.979861 C10.6074722,27.5520577 9.8154391,27.2217204 9.25415208,26.9888493 C8.69286505,26.7559781 7.85195323,26.4131966 6.7314166,25.9605048 Z" id="路径-97" fill="#E4ECF2"></path>
                </g>
                <path d="M91.8201078,49.8752405 L106.1164,58.0992921 C106.799675,58.4923514 107.033783,59.3628852 106.639294,60.0436839 C106.244804,60.7244825 105.371104,60.9577413 104.687829,60.5646821 L90.3915363,52.3406305 C89.7082612,51.9475712 89.4741538,51.0770373 89.8686429,50.3962387 C90.263132,49.7154401 91.1368326,49.4821812 91.8201078,49.8752405 Z" id="矩形" fill="url(#linearGradient-46)" opacity="0.7"></path>
                <path d="M279.808608,48.451847 L294.1049,56.6758986 C294.788175,57.0689579 295.022283,57.9394917 294.627794,58.6202903 C294.233304,59.301089 293.359604,59.5343478 292.676329,59.1412885 L278.380036,50.9172369 C277.696761,50.5241776 277.462654,49.6536438 277.857143,48.9728452 C278.251632,48.2920465 279.125333,48.0587877 279.808608,48.451847 Z" id="矩形" fill-opacity="0.8" fill="url(#linearGradient-46)" opacity="0.7"></path>
                <path d="M150.695733,8.77591763 L162.60931,15.629294 C163.178706,15.9568434 163.373795,16.6822882 163.045054,17.2496204 C162.716313,17.8169526 161.988229,18.011335 161.418833,17.6837856 L149.505256,10.8304093 C148.93586,10.5028599 148.740771,9.77741499 149.069512,9.2100828 C149.398253,8.6427506 150.126337,8.44836823 150.695733,8.77591763 Z" id="矩形" fill="url(#linearGradient-47)" opacity="0.7"></path>
            </g>
        </g>
    </g>
</svg>