<?xml version="1.0" encoding="UTF-8"?>
<svg width="24px" height="24px" viewBox="0 0 24 24" version="1.1" xmlns="http://www.w3.org/2000/svg" xmlns:xlink="http://www.w3.org/1999/xlink">
    <title>编辑_slice</title>
    <g id="内容制作" stroke="none" stroke-width="1" fill="none" fill-rule="evenodd">
        <g id="画板" transform="translate(-271.000000, -17.000000)">
            <g id="编辑" transform="translate(271.000000, 17.000000)">
                <rect id="矩形" fill-opacity="0.01" fill="#FFFFFF" x="0" y="0" width="24" height="24"></rect>
                <path d="M19.36,18.72 C19.7134622,18.72 20,19.0065378 20,19.36 C20,19.7134622 19.7134622,20 19.36,20 L11.68,20 C11.3265378,20 11.04,19.7134622 11.04,19.36 C11.04,19.0065378 11.3265378,18.72 11.68,18.72 L19.36,18.72 Z M16.9506104,4.369953 L19.630047,7.04938963 C20.1233177,7.54266029 20.1233177,8.34241005 19.630047,8.83568071 L8.84063104,19.6250967 C8.60058447,19.8651432 8.27501146,20 7.93553436,20 L4.64,20 C4.28653776,20 4,19.7134622 4,19.36 L4,16.0644656 C4,15.7249885 4.13485676,15.3994155 4.37490332,15.159369 L15.1643193,4.369953 C15.65759,3.87668233 16.4573397,3.87668233 16.9506104,4.369953 Z M13.3780282,7.94253517 L5.26309854,16.0574648 L5.26309854,18.7369015 L7.94253517,18.7369015 L16.0574648,10.6219718 L13.3780282,7.94253517 Z M19.36,16.16 C19.7134622,16.16 20,16.4465378 20,16.8 C20,17.1534622 19.7134622,17.44 19.36,17.44 L15.52,17.44 C15.1665378,17.44 14.88,17.1534622 14.88,16.8 C14.88,16.4465378 15.1665378,16.16 15.52,16.16 L19.36,16.16 Z M16.0574648,5.26309854 L14.2711737,7.04938963 L16.9504,9.72864 L18.7369015,7.94253517 L16.0574648,5.26309854 Z" id="形状" fill="#BCBDBF"></path>
            </g>
        </g>
    </g>
</svg>