<?xml version="1.0" encoding="UTF-8"?>
<svg width="32px" height="32px" viewBox="0 0 32 32" version="1.1" xmlns="http://www.w3.org/2000/svg" xmlns:xlink="http://www.w3.org/1999/xlink">
    <!-- Generator: Sketch 52.2 (67145) - http://www.bohemiancoding.com/sketch -->
    <title>nav_logo_32</title>
    <desc>Created with Sketch.</desc>
    <g id="nav_logo_32" stroke="none" stroke-width="1" fill="none" fill-rule="evenodd">
        <g id="Group" transform="translate(2.250000, 5.750000)" fill="#FFFFFF">
            <path d="M20.0025888,18.2904037 L21.4617236,18.2904037 C21.4948646,18.2899689 21.5280392,18.2904037 21.5613153,18.2904037 C23.6258576,18.2904037 25.2994999,16.6167614 25.2994999,14.552219 C25.2994999,13.3587849 24.7402423,12.2959724 23.8695054,11.6115598 C23.4985515,14.3209756 22.0649491,16.6918871 20.0025888,18.2904037 Z M5.87429022,10.8140343 C3.80974783,10.8140343 2.13610554,12.4876766 2.13610554,14.552219 C2.13610554,16.6167614 3.80974783,18.2904037 5.87429022,18.2904037 L13.7511794,18.2904037 C18.2120656,18.2904037 21.8283284,14.6741408 21.8283284,10.2132546 C21.8283284,5.75236835 18.2120656,2.13610554 13.7511794,2.13610554 C9.81518468,2.13610554 6.53674158,4.95141862 5.8197179,8.67817697 C6.83939561,8.67792874 7.7501418,8.91066811 8.55346444,9.32308251 C9.1952668,9.22864345 9.44559167,9.90976594 9.44559167,10.2132546 C9.44559167,11.0494032 10.0630597,11.8987754 9.02502926,12.5396742 C8.36077711,11.5019132 7.19786503,10.8140343 5.87429022,10.8140343 Z M27.4356055,14.552219 C27.4356055,17.7964999 24.8055962,20.4265092 21.5613153,20.4265092 L5.87429022,20.4265092 C2.63000932,20.4265092 0,17.7964999 0,14.552219 C0,12.1166195 1.48228637,10.0272266 3.59396274,9.13693662 C4.1317449,4.00223757 8.47407581,0 13.7511794,0 C19.038551,0 23.3875087,4.01782759 23.911492,9.16692231 C25.9859334,10.073497 27.4356055,12.1435634 27.4356055,14.552219 Z" id="Combined-Shape"></path>
            <path d="M9.09288962,12.6412173 C8.69578947,11.9215459 8.47766885,11.0928727 8.47766885,10.2132546 C8.47766885,7.33764197 10.8088135,5.00649735 13.6844261,5.00649735 C15.5977008,5.00649735 17.2699482,6.03845795 18.1749247,7.57613559 C18.1827407,7.59286612 18.1902318,7.60979701 18.1973753,7.62691993 C18.6406984,8.38651866 18.8911833,9.27063467 18.8911833,10.2132546 C18.8911833,13.0888672 16.5600387,15.4200118 13.6844261,15.4200118 C11.7468136,15.4200118 10.0563994,14.3616302 9.15976582,12.7914492 C9.13498691,12.7430041 9.11246864,12.6928713 9.09288962,12.6412173 Z M10.9263495,11.564612 C10.9904469,11.6478137 11.0425535,11.7407294 11.0800825,11.840772 C11.6228737,12.707512 12.5863378,13.2839063 13.6844261,13.2839063 C15.3803002,13.2839063 16.7550778,11.9091287 16.7550778,10.2132546 C16.7550778,9.66870567 16.6133291,9.15726392 16.3647168,8.71381438 C16.3243594,8.65953913 16.2890324,8.60130133 16.2594255,8.53979088 C15.7116816,7.69868668 14.762994,7.14260289 13.6844261,7.14260289 C11.988552,7.14260289 10.6137744,8.51738048 10.6137744,10.2132546 C10.6137744,10.698174 10.7261791,11.15684 10.9263543,11.5646183 Z" id="Combined-Shape"></path>
        </g>
    </g>
</svg>