<?xml version="1.0" encoding="UTF-8"?>
<svg width="112px" height="112px" viewBox="0 0 112 112" version="1.1" xmlns="http://www.w3.org/2000/svg" xmlns:xlink="http://www.w3.org/1999/xlink">
    <title>暂无搜索@2x</title>
    <g id="模型池" stroke="none" stroke-width="1" fill="none" fill-rule="evenodd">
        <g id="02模型池-搜索" transform="translate(-928.000000, -546.000000)">
            <g id="暂无搜索" transform="translate(928.000000, 546.000000)">
                <rect id="矩形" fill="#D8D8D8" opacity="0" x="0" y="0" width="112" height="112"></rect>
                <g id="缺省图/Web/结果反馈/常规无结果" fill="#000000">
                    <path d="M26,8 L66,8 L94,35.9990234 L94,96 C94,100.418278 90.418278,104 86,104 L26,104 C21.581722,104 18,100.418278 18,96 L18,16 C18,11.581722 21.581722,8 26,8 Z" id="Rectangle-9" opacity="0.0799999982"></path>
                    <polygon id="Path" opacity="0.0799999982" points="66 36 66 8 94 36"></polygon>
                    <path d="M66.6207405,69.8356484 L74.5783172,77.7932251 L69.6285697,82.7429726 L61.1853275,74.2997303 C59.0247953,75.3874852 56.5839279,76 54,76 C45.163444,76 38,68.836556 38,60 C38,51.163444 45.163444,44 54,44 C62.836556,44 70,51.163444 70,60 C70,63.708513 68.738302,67.1223406 66.6207405,69.8356484 L66.6207405,69.8356484 Z M54,69 C58.9705627,69 63,64.9705627 63,60 C63,55.0294373 58.9705627,51 54,51 C49.0294373,51 45,55.0294373 45,60 C45,64.9705627 49.0294373,69 54,69 Z" id="Shape" fill-rule="nonzero" opacity="0.24"></path>
                </g>
            </g>
        </g>
    </g>
</svg>