<?xml version="1.0" encoding="UTF-8"?>
<svg width="16px" height="16px" viewBox="0 0 16 16" version="1.1" xmlns="http://www.w3.org/2000/svg" xmlns:xlink="http://www.w3.org/1999/xlink">
    <!-- Generator: Sketch 64 (93537) - https://sketch.com -->
    <title>info_faulse</title>
    <desc>Created with Sketch.</desc>
    <defs>
        <path d="M7,0 C10.8659932,-7.10171439e-16 14,3.13400675 14,7 C14,10.8659932 10.8659932,14 7,14 C3.13400675,14 4.73447626e-16,10.8659932 0,7 C-4.73447626e-16,3.13400675 3.13400675,7.10171439e-16 7,0 Z" id="path-1"></path>
    </defs>
    <g id="算法模型库v1.2" stroke="none" stroke-width="1" fill="none" fill-rule="evenodd">
        <g id="01算法模型库-01智能分析列表" transform="translate(-154.000000, -118.000000)">
            <g id="操作栏" transform="translate(48.000000, 102.000000)">
                <g id="功能">
                    <g id="编组-10" transform="translate(106.000000, 16.000000)">
                        <g id="数据展示-/-徽标-/-1-有数据-/-一位数" transform="translate(1.000000, 1.000000)">
                            <g id="Data-Display/Badge">
                                <mask id="mask-2" fill="white">
                                    <use xlink:href="#path-1"></use>
                                </mask>
                                <use id="bg" fill="#FA3239" fill-rule="nonzero" xlink:href="#path-1"></use>
                                <path d="M7.63753846,9.36492308 L7.84430769,2.61907692 L6.64246154,2.61907692 L6.83630769,9.36492308 L7.63753846,9.36492308 Z M7.23692308,11.8461538 C7.45661538,11.8461538 7.65046154,11.7686154 7.80553846,11.6264615 C7.94769231,11.4843077 8.02523077,11.3033846 8.02523077,11.0707692 C8.02523077,10.8510769 7.94769231,10.6701538 7.80553846,10.528 C7.65046154,10.3729231 7.45661538,10.3083077 7.23692308,10.3083077 C7.01723077,10.3083077 6.83630769,10.3729231 6.68123077,10.528 C6.52615385,10.6701538 6.46153846,10.8510769 6.46153846,11.0707692 C6.46153846,11.2904615 6.52615385,11.4713846 6.68123077,11.6264615 C6.83630769,11.7686154 7.01723077,11.8461538 7.23692308,11.8461538 Z" id="！" fill="#FFFFFF" fill-rule="nonzero" mask="url(#mask-2)"></path>
                            </g>
                        </g>
                    </g>
                </g>
            </g>
        </g>
    </g>
</svg>