<?xml version="1.0" encoding="UTF-8"?>
<svg width="24px" height="24px" viewBox="0 0 24 24" version="1.1" xmlns="http://www.w3.org/2000/svg" xmlns:xlink="http://www.w3.org/1999/xlink">
    <!-- Generator: Sketch 57.1 (83088) - https://sketch.com -->
    <title>常用/业务/返回本周</title>
    <desc>Created with Sketch.</desc>
    <g id="常用/业务/返回本周" stroke="none" stroke-width="1" fill="none" fill-rule="evenodd">
        <path d="M6.96446609,10 L10.3033009,13.3388348 C10.498563,13.5340969 10.498563,13.8506794 10.3033009,14.0459415 C10.1080387,14.2412037 9.79145622,14.2412037 9.59619408,14.0459415 L5.35355339,9.80330086 C5.15829124,9.60803871 5.15829124,9.29145622 5.35355339,9.09619408 L9.59619408,4.85355339 C9.79145622,4.65829124 10.1080387,4.65829124 10.3033009,4.85355339 C10.498563,5.04881554 10.498563,5.36539803 10.3033009,5.56066017 L6.86396103,9 L14.5,9 C17.5375661,9 20,11.4624339 20,14.5 C20,17.5375661 17.5375661,20 14.5,20 L6.5,20 C6.22385763,20 6,19.7761424 6,19.5 C6,19.2238576 6.22385763,19 6.5,19 L14.5,19 L14.5,19 C16.9852814,19 19,16.9852814 19,14.5 C19,12.0147186 16.9852814,10 14.5,10 L6.96446609,10 Z" id="路径" fill="#FFFFFF"></path>
    </g>
</svg>