<?xml version="1.0" encoding="UTF-8"?>
<svg width="24px" height="24px" viewBox="0 0 24 24" version="1.1" xmlns="http://www.w3.org/2000/svg" xmlns:xlink="http://www.w3.org/1999/xlink">
    <!-- Generator: Sketch 57.1 (83088) - https://sketch.com -->
    <title>常用/业务/清空</title>
    <desc>Created with Sketch.</desc>
    <g id="常用/业务/清空" stroke="none" stroke-width="1" fill="none" fill-rule="evenodd">
        <path d="M5.50033688,5 L14.5064006,5 C14.7827291,5 15.0067375,5.22385763 15.0067375,5.5 L15.0067375,6.3503254 L15.8482299,6.125 L16.6252102,9.02277748 L18.0750751,8.63454891 C18.3419879,8.56307801 18.6163411,8.72136925 18.6878601,8.9881023 L19.9828273,13.8177314 C20.0543463,14.0844645 19.8959484,14.358633 19.6290357,14.4301039 L18.1791707,14.8183324 L18.956151,17.7161099 L17.9895744,17.974929 L15.0067375,6.8503254 L15.0067375,17.5 C15.0067375,17.7761424 14.7827291,18 14.5064006,18 L5.50033688,18 C5.22400845,18 5,17.7761424 5,17.5 L5,5.5 C5,5.22385763 5.22400845,5 5.50033688,5 Z M6.00067375,6 L6.00067375,17 L14.0060638,17 L14.0060638,6 L6.00067375,6 Z M17.9201773,13.8524066 L18.8867539,13.5935876 L17.8507802,9.72988426 L16.8842036,9.98870331 L17.9201773,13.8524066 L17.9201773,13.8524066 Z M8.00202125,10 L9.002695,10 L9.002695,16 L8.00202125,16 L8.00202125,10 Z M11.0040425,10 L12.0047163,10 L12.0047163,16 L11.0040425,16 L11.0040425,10 Z" id="Combined-Shape" fill="#FFFFFF"></path>
    </g>
</svg>