<?xml version="1.0" encoding="UTF-8"?>
<svg width="24px" height="24px" viewBox="0 0 24 24" version="1.1" xmlns="http://www.w3.org/2000/svg" xmlns:xlink="http://www.w3.org/1999/xlink">
    <!-- Generator: Sketch 57.1 (83088) - https://sketch.com -->
    <title>常用/业务/绘制区域/多边形</title>
    <desc>Created with Sketch.</desc>
    <g id="常用/业务/绘制区域/多边形" stroke="none" stroke-width="1" fill="none" fill-rule="evenodd">
        <path d="M5,10.0000008 L5.99370487,10.0000008 L5.99370487,12.6875005 L5,12.6875005 L5,10.0000008 Z M5,14.3750004 L5.99370487,14.3750004 L5.99370487,17.0625002 L5,17.0625002 L5,14.3750004 Z M5.74527865,19.0000001 L5.74527865,18.0000001 L8.41586049,18.0000001 L8.41586049,19.0000001 L5.74527865,19.0000001 Z M10.0927375,19.0000001 L10.0927375,18.0000001 L12.7633193,18.0000001 L12.7633193,19.0000001 L10.0927375,19.0000001 Z M14.6323542,18.361325 L13.8055418,17.8066249 L15.286914,15.5704899 L16.1137265,16.12519 L14.6323542,18.361325 Z M17.0438904,14.7211053 L16.217078,14.1664051 L17.6984503,11.9302702 L18.5252627,12.4849703 L17.0438904,14.7211053 Z M19,10.45421 L18.4370375,11.2782518 L16.2363662,9.75570573 L16.7993286,8.93166388 L19,10.45421 Z M15.4175117,7.97564657 L14.8545492,8.79968843 L12.6538778,7.27714235 L13.2168403,6.45310049 L15.4175117,7.97564657 Z M9.76531203,7.13153122 L9.13606055,6.35757399 L10.6476035,5.11302254 C10.8186558,4.97218405 11.0615889,4.96197849 11.2437104,5.08798023 L11.8350234,5.49708319 L11.2720609,6.32112504 L10.9881431,6.124695 L9.76531203,7.13153122 Z M7.83822939,7.42616267 L8.46748086,8.2001199 L6.40056456,9.90194632 L5.77131308,9.12798908 L7.83822939,7.42616267 Z" id="Shape" fill="#FFFFFF"></path>
    </g>
</svg>