<?xml version="1.0" encoding="UTF-8"?>
<svg width="24px" height="24px" viewBox="0 0 24 24" version="1.1" xmlns="http://www.w3.org/2000/svg" xmlns:xlink="http://www.w3.org/1999/xlink">
    <!-- Generator: Sketch 57.1 (83088) - https://sketch.com -->
    <title>常用/业务/绘制区域/四边形</title>
    <desc>Created with Sketch.</desc>
    <g id="常用/业务/绘制区域/四边形" stroke="none" stroke-width="1" fill="none" fill-rule="evenodd">
        <path d="M17,6 L15,6 L15,5 L17.5,5 C17.7761424,5 18,5.22385763 18,5.5 L18,8 L17,8 L17,6 Z M17,15 L18,15 L18,17.5 C18,17.7761424 17.7761424,18 17.5,18 L15,18 L15,17 L17,17 L17,15 Z M8,17 L8,18 L5.5,18 C5.22385763,18 5,17.7761424 5,17.5 L5,15 L6,15 L6,17 L8,17 Z M6,6 L6,8 L5,8 L5,5.5 C5,5.22385763 5.22385763,5 5.5,5 L8.0625,5 L8.0625,6 L6,6 Z M10,5 L13,5 L13,6 L10,6 L10,5 Z M10,17 L13,17 L13,18 L10,18 L10,17 Z M5,10 L6,10 L6,13 L5,13 L5,10 Z M17,10 L18,10 L18,13 L17,13 L17,10 Z" id="Shape" fill="#FFFFFF"></path>
    </g>
</svg>