<?xml version="1.0" encoding="UTF-8"?>
<svg width="24px" height="24px" viewBox="0 0 24 24" version="1.1" xmlns="http://www.w3.org/2000/svg" xmlns:xlink="http://www.w3.org/1999/xlink">
    <title>Mouse/删除锚点备份@2x</title>
    <defs>
        <path d="M5.1613899,0.500074968 C5.2332234,0.542748335 5.2932178,0.602742732 5.33589116,0.674576234 L9.67177965,7.97332184 C9.82049385,8.22365742 9.85271105,8.52637886 9.76001518,8.80240656 L8.059,13.8688663 L8.21195569,14.7865645 C8.30275075,15.3313348 7.93473108,15.8465623 7.38996076,15.9373574 C7.33562933,15.9464126 7.28064263,15.9509635 7.22556177,15.9509635 L2.58648261,15.9509635 C2.03419786,15.9509635 1.58648261,15.5032482 1.58648261,14.9509635 C1.58648261,14.8958826 1.59103345,14.8408959 1.60008869,14.7865645 L1.753,13.8678663 L0.0520292019,8.80240656 C-0.0406666684,8.52637886 -0.00844946908,8.22365742 0.140264736,7.97332184 L4.47615322,0.674576234 C4.61718891,0.437166156 4.92397982,0.359039277 5.1613899,0.500074968 Z" id="path-1"></path>
        <filter x="-76.4%" y="-35.4%" width="252.9%" height="196.6%" filterUnits="objectBoundingBox" id="filter-2">
            <feMorphology radius="0.5" operator="dilate" in="SourceAlpha" result="shadowSpreadOuter1"></feMorphology>
            <feOffset dx="0" dy="2" in="shadowSpreadOuter1" result="shadowOffsetOuter1"></feOffset>
            <feGaussianBlur stdDeviation="2" in="shadowOffsetOuter1" result="shadowBlurOuter1"></feGaussianBlur>
            <feComposite in="shadowBlurOuter1" in2="SourceAlpha" operator="out" result="shadowBlurOuter1"></feComposite>
            <feColorMatrix values="0 0 0 0 0   0 0 0 0 0   0 0 0 0 0  0 0 0 0.2 0" type="matrix" in="shadowBlurOuter1"></feColorMatrix>
        </filter>
        <rect id="path-3" x="10" y="0" width="7.99739446" height="2"></rect>
        <filter x="-93.8%" y="-275.0%" width="287.6%" height="850.0%" filterUnits="objectBoundingBox" id="filter-4">
            <feMorphology radius="0.5" operator="dilate" in="SourceAlpha" result="shadowSpreadOuter1"></feMorphology>
            <feOffset dx="0" dy="2" in="shadowSpreadOuter1" result="shadowOffsetOuter1"></feOffset>
            <feGaussianBlur stdDeviation="2" in="shadowOffsetOuter1" result="shadowBlurOuter1"></feGaussianBlur>
            <feComposite in="shadowBlurOuter1" in2="SourceAlpha" operator="out" result="shadowBlurOuter1"></feComposite>
            <feColorMatrix values="0 0 0 0 0   0 0 0 0 0   0 0 0 0 0  0 0 0 0.2 0" type="matrix" in="shadowBlurOuter1"></feColorMatrix>
        </filter>
    </defs>
    <g id="Mouse/删除锚点备份" stroke="none" stroke-width="1" fill="none" fill-rule="evenodd">
        <g id="编组" transform="translate(11.998697, 12.024518) scale(1, -1) translate(-11.998697, -12.024518) translate(3.000000, 4.049037)">
            <g id="形状结合" transform="translate(4.906022, 8.190415) scale(1, -1) translate(-4.906022, -8.190415) ">
                <use fill="black" fill-opacity="1" filter="url(#filter-2)" xlink:href="#path-1"></use>
                <use stroke="#FFFFFF" stroke-width="1" fill-opacity="0.9" fill="#000000" fill-rule="evenodd" xlink:href="#path-1"></use>
            </g>
            <polygon id="路径" fill="#FFFFFF" fill-rule="nonzero" points="7.92386745 2.04730757 7.93959857 3.04718383 1.73180207 2.94176447 1.71607096 1.94188821"></polygon>
            <path d="M4.21258984,6.353458 C4.60311414,5.96293371 5.23627911,5.96293371 5.62680341,6.353458 C6.0173277,6.7439823 6.0173277,7.37714727 5.62680341,7.76767157 C5.5550404,7.83943458 5.4750839,7.89801037 5.38994519,7.94339894 L5.36984552,15.53125 L4.37892221,15.53125 L4.39795686,7.91393868 C4.33199102,7.87353364 4.26969621,7.82477794 4.21258984,7.76767157 C3.82206555,7.37714727 3.82206555,6.7439823 4.21258984,6.353458 Z" id="路径-16" fill="#FFFFFF" fill-rule="nonzero"></path>
            <g id="形状结合">
                <use fill="black" fill-opacity="1" filter="url(#filter-4)" xlink:href="#path-3"></use>
                <use stroke="#FFFFFF" stroke-width="1" fill-opacity="0.9" fill="#000000" fill-rule="evenodd" xlink:href="#path-3"></use>
            </g>
        </g>
    </g>
</svg>