<?xml version="1.0" encoding="UTF-8"?>
<svg width="16px" height="16px" viewBox="0 0 16 16" version="1.1" xmlns="http://www.w3.org/2000/svg" xmlns:xlink="http://www.w3.org/1999/xlink">
    <title>common_suspend_nor</title>
    <g id="算法模型列表" stroke="none" stroke-width="1" fill="none" fill-rule="evenodd">
        <g id="弹窗" transform="translate(-2470.000000, -494.000000)">
            <g id="自动更新详情" transform="translate(1504.000000, 144.000000)">
                <g id="ic_勾选" transform="translate(966.000000, 350.000000)">
                    <rect id="矩形" fill="#D8D8D8" opacity="0" x="0" y="0" width="16" height="16"></rect>
                    <path d="M8,0 C12.418278,0 16,3.581722 16,8 C16,12.418278 12.418278,16 8,16 C3.581722,16 0,12.418278 0,8 C0,3.581722 3.581722,0 8,0 Z M8,1.5 C4.41014913,1.5 1.5,4.41014913 1.5,8 C1.5,11.5898509 4.41014913,14.5 8,14.5 C11.5898509,14.5 14.5,11.5898509 14.5,8 C14.5,4.41014913 11.5898509,1.5 8,1.5 Z" id="形状" fill="#02BF0F" fill-rule="nonzero"></path>
                    <g id="编组-3" transform="translate(5.750000, 5.500000)" fill="#02BF0F" fill-rule="nonzero">
                        <rect id="矩形" x="0" y="0" width="1.5" height="5"></rect>
                        <rect id="矩形" x="3" y="0" width="1.5" height="5"></rect>
                    </g>
                </g>
            </g>
        </g>
    </g>
</svg>