<?xml version="1.0" encoding="UTF-8"?>
<svg width="24px" height="24px" viewBox="0 0 24 24" version="1.1" xmlns="http://www.w3.org/2000/svg" xmlns:xlink="http://www.w3.org/1999/xlink">
    <title>编组 11</title>
    <g id="控件" stroke="none" stroke-width="1" fill="none" fill-rule="evenodd">
        <g id="编组-11">
            <rect id="矩形" x="0" y="0" width="24" height="24"></rect>
            <g id="编组" transform="translate(4.500000, 5.500000)">
                <path d="M1.46038171,6.01863621 L1.38690134,6.01344037 C1.64468533,6.01344037 1.85366055,6.2211418 1.85366055,6.4773545 L1.86022221,6.65104681 L1.88228086,6.88728365 C1.89777785,7.01990296 1.9204214,7.17342217 1.95221429,7.34400986 C2.0765214,8.01099116 2.30007781,8.67738705 2.64578552,9.29569595 C3.3435228,10.5436206 4.44728074,11.4409411 6.06335177,11.8538543 C8.13115507,12.3821872 9.77410364,11.9177505 11.0572008,10.8179174 C11.3784009,10.5425941 11.6504085,10.2473719 11.8733799,9.95315861 L11.9463954,9.8545769 L12.0583843,9.69211657 L12.125186,9.58278686 C12.2494337,9.3582984 12.5332564,9.27642329 12.7591216,9.39991369 C12.9849867,9.52340409 13.067364,9.80549669 12.9431162,10.0299852 C12.7297991,10.4154026 12.3101269,10.9691645 11.6668773,11.5205392 C10.1634886,12.8091998 8.21203102,13.3608472 5.83092801,12.7524649 C3.95702056,12.2736733 2.64770767,11.2092431 1.82979714,9.74638495 C1.59995911,9.33531254 1.41786312,8.90862138 1.27771399,8.47542452 L0.985645712,9.47141879 C0.907742487,9.73647415 0.62849397,9.88854913 0.361926694,9.81108775 C0.124978004,9.7422332 -0.0221930304,9.51519331 0.00274151306,9.27943321 L0.0203202126,9.19090633 L0.851650314,6.36241622 C0.928094678,6.10232444 1.19841392,5.95102119 1.46038171,6.01863621 Z M9.47662526,0.379167628 C11.1499758,0.950020343 12.3347473,1.94846315 13.0912612,3.24679842 C13.3886558,3.75718951 13.6071662,4.29203142 13.75836,4.83543775 L14.0984844,3.97247124 C14.1924699,3.73389416 14.4632513,3.61621515 14.7032915,3.70962782 C14.9166606,3.79266129 15.0339195,4.01453384 14.9913338,4.23037406 L14.9677469,4.31074842 L14.020974,6.71407884 L13.9962165,6.76748019 C13.9379638,6.97291054 13.7483977,7.11577944 13.529446,7.10733832 C13.3004769,7.098511 13.1164436,6.92718288 13.0853915,6.70940779 L13.081129,6.6257916 L13.0812674,6.44801871 C13.0662154,5.69096958 12.8533678,4.68990932 12.2834332,3.7117828 C11.6372691,2.60283076 10.6292431,1.75333674 9.17356408,1.25674126 C7.15623635,0.568546019 5.42562232,1.00806431 3.97271874,2.17065341 C3.63067214,2.44435336 3.33277252,2.73798646 3.08159524,3.03082225 L2.92799843,3.21692055 L2.82368384,3.35484668 C2.81044938,3.37337067 2.79930167,3.38955048 2.79025739,3.40321759 C2.64860116,3.61727913 2.35917071,3.67667519 2.14379639,3.5358824 C1.92842207,3.39508962 1.86866175,3.10742336 2.01031798,2.89336183 L2.11534259,2.74574305 L2.27286508,2.54589911 C2.30347223,2.50868301 2.33625071,2.46962334 2.3711925,2.42888635 C2.65837907,2.09406902 2.99725245,1.760049 3.38730013,1.44793937 C5.07233802,0.0996002918 7.12729051,-0.422289153 9.47662526,0.379167628 Z" id="形状结合" fill="#CCCCCC" fill-rule="nonzero"></path>
                <g transform="translate(7.537910, 6.598108) rotate(-270.000000) translate(-7.537910, -6.598108) translate(4.625259, 3.598108)" id="路径" stroke="#CCCCCC" stroke-linecap="round" stroke-linejoin="round" stroke-width="0.9">
                    <polyline points="5.825302 2.12903226 2.70967742 2.12903226 2.70967742 0 0 2.90322581 2.70967742 6 2.70967742 3.67741935 4.79853555 3.67741935"></polyline>
                </g>
            </g>
        </g>
    </g>
</svg>