<?xml version="1.0" encoding="UTF-8"?>
<svg width="64px" height="64px" viewBox="0 0 64 64" version="1.1" xmlns="http://www.w3.org/2000/svg" xmlns:xlink="http://www.w3.org/1999/xlink">
    <title>上传空态</title>
    <defs>
        <linearGradient x1="16.4102713%" y1="19.4835492%" x2="27.1660729%" y2="73.0229592%" id="linearGradient-1">
            <stop stop-color="#B4BBCB" offset="0%"></stop>
            <stop stop-color="#D7DBE4" offset="100%"></stop>
        </linearGradient>
    </defs>
    <g id="表格导入" stroke="none" stroke-width="1" fill="none" fill-rule="evenodd">
        <g id="上传流程" transform="translate(-411.000000, -960.000000)" fill-rule="nonzero">
            <g id="弹窗" transform="translate(121.000000, 740.000000)">
                <g id="编组-10" transform="translate(56.000000, 196.000000)">
                    <g id="上传空态" transform="translate(234.000000, 24.000000)">
                        <rect id="矩形" fill="#000000" opacity="0" x="0" y="0" width="64" height="64"></rect>
                        <path d="M32.0125,13 C40.55625,13 47.85,18.4403333 50.7125,26.091 C56.05625,27.5223333 60,32.4623333 60,38.3333333 C60,45.22875 54.5695623,50.8329967 47.8098006,50.9963362 L47.50625,51 L36.165,51 L36.1656623,36.7861928 L39.1263121,36.7861928 C39.5526183,36.7861928 39.7880411,36.285579 39.5271672,35.9475021 L32.4008551,26.7284053 C32.1972461,26.4618447 31.8027539,26.4618447 31.5991449,26.7284053 L24.4728328,35.9410006 C24.2119589,36.2790775 24.4473817,36.7796913 24.8736879,36.7796913 L27.8216122,36.7796913 L27.821,51 L16.49375,51 C9.69522059,51 4.16480455,45.4971565 4.00361553,38.6412066 L4,38.3333333 C4,32.4496667 7.95625,27.5096667 13.3125,26.0846667 C16.175,18.434 23.46875,13 32.0125,13 Z" id="路径" fill="url(#linearGradient-1)" opacity="0.600000024"></path>
                    </g>
                </g>
            </g>
        </g>
    </g>
</svg>