<?xml version="1.0" encoding="UTF-8"?>
<svg width="16px" height="16px" viewBox="0 0 16 16" version="1.1" xmlns="http://www.w3.org/2000/svg" xmlns:xlink="http://www.w3.org/1999/xlink">
    <title>成功</title>
    <g id="表格导入" stroke="none" stroke-width="1" fill="none" fill-rule="evenodd">
        <g id="上传流程" transform="translate(-913.000000, -1512.000000)" stroke-width="2">
            <g id="弹窗" transform="translate(801.000000, 1212.000000)">
                <g id="编组-10" transform="translate(56.000000, 196.000000)">
                    <g id="编组-12" transform="translate(56.000000, 42.000000)">
                        <g id="编组-9" transform="translate(0.000000, 60.000000)">
                            <g id="成功" transform="translate(0.000000, 2.000000)">
                                <path d="M8,1 C9.93298053,1 11.6829801,1.78350469 12.9497293,3.05024687 C14.2164854,4.31701693 15,6.06701729 15,8 C15,9.93298 14.2164878,11.6829787 12.9497332,12.9497332 C11.6829787,14.2164878 9.93298,15 8,15 C6.06701729,15 4.31701693,14.2164854 3.05025273,12.9497352 C1.78350469,11.6829801 1,9.93298053 1,8 C1,6.06701676 1.78350709,4.31701548 3.05024492,3.05025664 C4.31701548,1.78350709 6.06701676,1 8,1 Z" id="路径" stroke="#02BF0F" fill="#02BF0F" fill-rule="nonzero"></path>
                                <polyline id="路径" stroke="#FFFFFF" stroke-linejoin="round" points="4.8 8 7.2 10.4 12 5.6"></polyline>
                            </g>
                        </g>
                    </g>
                </g>
            </g>
        </g>
    </g>
</svg>