<?xml version="1.0" encoding="UTF-8"?>
<svg width="16px" height="16px" viewBox="0 0 16 16" version="1.1" xmlns="http://www.w3.org/2000/svg" xmlns:xlink="http://www.w3.org/1999/xlink">
    <title>下载</title>
    <g id="表格导入" stroke="none" stroke-width="1" fill="none" fill-rule="evenodd">
        <g id="上传流程" transform="translate(-1273.000000, -1806.000000)">
            <g id="弹窗" transform="translate(801.000000, 1684.000000)">
                <g id="编组-5" transform="translate(56.000000, 112.000000)">
                    <g id="下载" transform="translate(416.000000, 10.000000)">
                        <rect id="矩形" fill-opacity="0.01" fill="#FFFFFF" x="0" y="0" width="16" height="16"></rect>
                        <path d="M13.6039631,11.0821771 C13.916124,11.0821771 14.1691805,11.3352335 14.1691805,11.6473945 L14.1691805,13.908264 C14.1691805,14.1892089 13.9642047,14.4222791 13.6956443,14.4660837 L13.6039631,14.4734814 L2.29961524,14.4734814 C1.98745429,14.4734814 1.73439785,14.220425 1.73439785,13.908264 L1.73439785,11.6473945 C1.73439785,11.3352335 1.98745429,11.0821771 2.29961524,11.0821771 C2.61177618,11.0821771 2.86483263,11.3352335 2.86483263,11.6473945 L2.86439785,13.3421771 L13.0383978,13.3421771 L13.0387457,11.6473945 C13.0387457,11.3352335 13.2918021,11.0821771 13.6039631,11.0821771 Z M8.01700654,1.47348142 C8.29314892,1.47348142 8.51700654,1.69733905 8.51700654,1.97348142 L8.51752828,9.83539447 L11.5171379,6.73022723 C11.7202978,6.52001192 12.0406687,6.50499655 12.260573,6.68518109 L12.3094376,6.73022723 C12.5113954,6.93919865 12.5269306,7.26802072 12.3560433,7.4954307 L12.3094376,7.5500424 L8.6309032,11.3563271 C8.25583887,11.7444169 7.64773943,11.7444169 7.2726751,11.3563271 L3.59414067,7.5500424 C3.37535314,7.32365669 3.37535314,6.95661293 3.59414067,6.73022723 C3.79609838,6.5212558 4.1138842,6.50518108 4.33366162,6.68200305 L4.39318176,6.737321 L7.38752828,9.83539447 L7.38657176,1.97348142 C7.38657176,1.69733905 7.61042939,1.47348142 7.88657176,1.47348142 L8.01700654,1.47348142 Z" id="形状结合" fill="#1457FB"></path>
                    </g>
                </g>
            </g>
        </g>
    </g>
</svg>