<?xml version="1.0" encoding="UTF-8"?>
<svg width="16px" height="16px" viewBox="0 0 16 16" version="1.1" xmlns="http://www.w3.org/2000/svg" xmlns:xlink="http://www.w3.org/1999/xlink">
    <title>失败</title>
    <g id="表格导入" stroke="none" stroke-width="1" fill="none" fill-rule="evenodd">
        <g id="上传流程" transform="translate(-913.000000, -1984.000000)">
            <g id="弹窗" transform="translate(801.000000, 1684.000000)">
                <g id="编组-10" transform="translate(56.000000, 196.000000)">
                    <g id="编组-12" transform="translate(56.000000, 42.000000)">
                        <g id="编组-9" transform="translate(0.000000, 60.000000)">
                            <g id="ic_勾选" transform="translate(0.000000, 2.000000)">
                                <rect id="矩形" fill="#D8D8D8" opacity="0" x="0" y="0" width="16" height="16"></rect>
                                <path d="M8,0 C12.418278,0 16,3.581722 16,8 C16,12.418278 12.418278,16 8,16 C3.581722,16 0,12.418278 0,8 C0,3.581722 3.581722,0 8,0 Z M8,1.5 C4.41014913,1.5 1.5,4.41014913 1.5,8 C1.5,11.5898509 4.41014913,14.5 8,14.5 C11.5898509,14.5 14.5,11.5898509 14.5,8 C14.5,4.41014913 11.5898509,1.5 8,1.5 Z M8,10 C8.41421356,10 8.75,10.3357864 8.75,10.75 C8.75,11.1642136 8.41421356,11.5 8,11.5 C7.58578644,11.5 7.25,11.1642136 7.25,10.75 C7.25,10.3357864 7.58578644,10 8,10 Z M8,4 C8.41421356,4 8.75,4.33578644 8.75,4.75 L8.75,8.25 C8.75,8.66421356 8.41421356,9 8,9 C7.58578644,9 7.25,8.66421356 7.25,8.25 L7.25,4.75 C7.25,4.33578644 7.58578644,4 8,4 Z" id="形状结合" fill="#FA3239" fill-rule="nonzero"></path>
                            </g>
                        </g>
                    </g>
                </g>
            </g>
        </g>
    </g>
</svg>