<?xml version="1.0" encoding="UTF-8"?>
<svg width="16px" height="16px" viewBox="0 0 16 16" version="1.1" xmlns="http://www.w3.org/2000/svg" xmlns:xlink="http://www.w3.org/1999/xlink">
    <title>上传</title>
    <g id="表格导入" stroke="none" stroke-width="1" fill="none" fill-rule="evenodd">
        <g id="上传流程" transform="translate(-145.000000, -607.000000)">
            <g id="弹窗" transform="translate(121.000000, 81.000000)">
                <g id="编组-2" transform="translate(24.000000, 525.000000)">
                    <g id="上传" transform="translate(0.000000, 1.000000)">
                        <rect id="矩形" fill-opacity="0.01" fill="#FFFFFF" x="0" y="0" width="16" height="16"></rect>
                        <path d="M13.6039631,11.0821771 C13.916124,11.0821771 14.1691805,11.3352335 14.1691805,11.6473945 L14.1691805,13.908264 C14.1691805,14.1892089 13.9642047,14.4222791 13.6956443,14.4660837 L13.6039631,14.4734814 L2.29961524,14.4734814 C1.98745429,14.4734814 1.73439785,14.220425 1.73439785,13.908264 L1.73439785,11.6473945 C1.73439785,11.3352335 1.98745429,11.0821771 2.29961524,11.0821771 C2.61177618,11.0821771 2.86483263,11.3352335 2.86483263,11.6473945 L2.86439785,13.3421771 L13.0383978,13.3421771 L13.0387457,11.6473945 C13.0387457,11.3352335 13.2918021,11.0821771 13.6039631,11.0821771 Z M8.6309032,1.76454876 L12.3094376,5.57083349 C12.5282252,5.7972192 12.5282252,6.16426295 12.3094376,6.39064866 C12.1074799,6.59962009 11.7896941,6.61569481 11.5699167,6.43887284 L11.5103965,6.38355489 L8.51605002,3.28548142 L8.51700654,11.1473945 C8.51700654,11.4235368 8.29314892,11.6473945 8.01700654,11.6473945 L7.88657176,11.6473945 C7.61042939,11.6473945 7.38657176,11.4235368 7.38657176,11.1473945 L7.38605002,3.28548142 L4.38644039,6.39064866 C4.18328054,6.60086396 3.86290959,6.61587934 3.6430053,6.4356948 L3.59414067,6.39064866 C3.39218295,6.18167724 3.37664774,5.85285517 3.54753504,5.62544519 L3.59414067,5.57083349 L7.2726751,1.76454876 C7.64773943,1.37645898 8.25583887,1.37645898 8.6309032,1.76454876 Z" id="形状结合" fill="#1457FB"></path>
                    </g>
                </g>
            </g>
        </g>
    </g>
</svg>