<?xml version="1.0" encoding="UTF-8"?>
<svg width="16px" height="16px" viewBox="0 0 16 16" version="1.1" xmlns="http://www.w3.org/2000/svg" xmlns:xlink="http://www.w3.org/1999/xlink">
    <g id="发布管理" stroke="none" stroke-width="1" fill="none" fill-rule="evenodd">
        <g id="发布管理-卡片模式" transform="translate(-840.000000, -537.000000)">
            <g id="卡片" transform="translate(824.000000, 399.000000)">
                <g id="Icon-/-Outlined-/-Status-/-Warning-/-16" transform="translate(16.000000, 138.000000)">
                    <rect id="矩形" x="0" y="0" width="16" height="16"></rect>
                    <path d="M8,1 C11.8659932,1 15,4.13400675 15,8 C15,11.8659932 11.8659932,15 8,15 C4.13400675,15 1,11.8659932 1,8 C1,4.13400675 4.13400675,1 8,1 Z M8,2 C4.6862915,2 2,4.6862915 2,8 C2,11.3137085 4.6862915,14 8,14 C11.3137085,14 14,11.3137085 14,8 C14,4.6862915 11.3137085,2 8,2 Z M8,11 C8.27614237,11 8.5,11.2238576 8.5,11.5 C8.5,11.7761424 8.27614237,12 8,12 C7.72385763,12 7.5,11.7761424 7.5,11.5 C7.5,11.2238576 7.72385763,11 8,11 Z M8,4 C8.27614237,4 8.5,4.22385763 8.5,4.5 L8.5,9.5 C8.5,9.77614237 8.27614237,10 8,10 C7.72385763,10 7.5,9.77614237 7.5,9.5 L7.5,4.5 C7.5,4.22385763 7.72385763,4 8,4 Z" id="形状" fill="#E01212"></path>
                </g>
            </g>
        </g>
    </g>
</svg>