<?xml version="1.0" encoding="UTF-8"?>
<svg width="24px" height="24px" viewBox="0 0 24 24" version="1.1" xmlns="http://www.w3.org/2000/svg" xmlns:xlink="http://www.w3.org/1999/xlink">
    <g id="内容制作" stroke="none" stroke-width="1" fill="none" fill-rule="evenodd">
        <g id="画板" transform="translate(-24.000000, -18.000000)">
            <g id="返回" transform="translate(24.000000, 18.000000)">
                <rect id="矩形" fill-opacity="0.01" fill="#FFFFFF" x="0" y="0" width="24" height="24"></rect>
                <path d="M3.46627408,11.8820091 C3.47591665,11.7685987 3.52412953,11.657851 3.6109127,11.5710678 L3.6109127,11.5710678 L10.3284271,4.85355339 C10.5236893,4.65829124 10.8402718,4.65829124 11.0355339,4.85355339 L11.0355339,4.85355339 L11.3890873,5.20710678 C11.5843494,5.40236893 11.5843494,5.71895142 11.3890873,5.91421356 L11.3890873,5.91421356 L6.05273146,11.2496602 L19.75,11.25 C20.0261424,11.25 20.25,11.4738576 20.25,11.75 L20.25,12.25 C20.25,12.5261424 20.0261424,12.75 19.75,12.75 L6.18173146,12.7496602 L11.3890873,17.9563492 C11.5843494,18.1516113 11.5843494,18.4681938 11.3890873,18.663456 L11.0355339,19.0170094 C10.8402718,19.2122715 10.5236893,19.2122715 10.3284271,19.0170094 L3.98593552,12.6746619 C3.92154322,12.6345365 3.86694154,12.5801728 3.82653449,12.5159748 L3.6109127,12.2994949 C3.52412953,12.2127118 3.47591665,12.1019641 3.46627408,11.9885537 Z" id="形状结合" fill="#000000"></path>
            </g>
        </g>
    </g>
</svg>