<?xml version="1.0" encoding="UTF-8"?>
<svg width="16px" height="16px" viewBox="0 0 16 16" version="1.1" xmlns="http://www.w3.org/2000/svg" xmlns:xlink="http://www.w3.org/1999/xlink">
    <g id="发布管理" stroke="none" stroke-width="1" fill="none" fill-rule="evenodd">
        <g id="发布管理-投放设备选中状态" transform="translate(-1096.000000, -451.000000)">
            <g id="弹窗" transform="translate(496.000000, 171.000000)">
                <g id="内容" transform="translate(24.000000, 64.000000)">
                    <g id="编组-12" transform="translate(560.000000, 124.000000)">
                        <g id="Icon-/-Outlined-/-Status-/-Checkmark-/-16" transform="translate(16.000000, 92.000000)">
                            <rect id="矩形" fill-opacity="0.01" fill="#FFFFFF" x="0" y="0" width="16" height="16"></rect>
                            <path d="M8,1 C11.8659932,1 15,4.13400675 15,8 C15,11.8659932 11.8659932,15 8,15 C4.13400675,15 1,11.8659932 1,8 C1,4.13400675 4.13400675,1 8,1 Z M8,2 C4.6862915,2 2,4.6862915 2,8 C2,11.3137085 4.6862915,14 8,14 C11.3137085,14 14,11.3137085 14,8 C14,4.6862915 11.3137085,2 8,2 Z M11.781728,5.64644661 C11.9769901,5.84170876 11.9769901,6.15829124 11.781728,6.35355339 L7.5390873,10.5961941 C7.34382515,10.7914562 7.02724266,10.7914562 6.83198052,10.5961941 L6.81487062,10.5771282 C6.79852515,10.5644188 6.78278712,10.5505541 6.76776695,10.5355339 L4.64644661,8.41421356 C4.45118446,8.21895142 4.45118446,7.90236893 4.64644661,7.70710678 C4.84170876,7.51184464 5.15829124,7.51184464 5.35355339,7.70710678 L7.1835,9.537 L11.0746212,5.64644661 C11.2698833,5.45118446 11.5864658,5.45118446 11.781728,5.64644661 Z" id="形状" fill="#0DA634"></path>
                        </g>
                    </g>
                </g>
            </g>
        </g>
    </g>
</svg>