<?xml version="1.0" encoding="UTF-8"?>
<svg width="24px" height="24px" viewBox="0 0 24 24" version="1.1" xmlns="http://www.w3.org/2000/svg" xmlns:xlink="http://www.w3.org/1999/xlink">
    <!-- Generator: Sketch 57.1 (83088) - https://sketch.com -->
    <title>common/重新下发</title>
    <desc>Created with Sketch.</desc>
    <g id="common/重新下发" stroke="none" stroke-width="1" fill="none" fill-rule="evenodd" fill-opacity="0.7">
        <g id="常用/业务/不常用/重新下发" fill="#000000">
            <path d="M6.95368583,16.1455417 C8.12580272,17.2927771 9.73031097,18 11.5,18 C15.0898509,18 18,15.0898509 18,11.5 C18,11.2042497 17.9802479,10.9131128 17.941991,10.6278364 L17,11 L18,7.5625 L18.6926517,9.36804653 C18.8926466,10.043816 19,10.7593711 19,11.5 C19,15.6421356 15.6421356,19 11.5,19 C9.35800051,19 7.42572901,18.1020477 6.05908307,16.6620408 L6.95368583,16.1455417 Z M16.0463142,6.85445835 C14.8741973,5.70722295 13.269689,5 11.5,5 C7.91014913,5 5,7.91014913 5,11.5 C5,11.7957503 5.01975207,12.0868872 5.05800902,12.3721636 L6,12 L5,15.4375 L4.30734828,13.6319535 C4.10735339,12.956184 4,12.2406289 4,11.5 C4,7.35786438 7.35786438,4 11.5,4 C13.6419995,4 15.574271,4.89795226 16.9409169,6.3379592 L16.0463142,6.85445835 Z M12.0019383,12 L13.3958607,12 C13.5339319,12 13.6458607,12.1119288 13.6458607,12.25 C13.6458607,12.2938842 13.6343091,12.3369952 13.612367,12.375 L11.7269576,15.640625 C11.657922,15.7601982 11.5050244,15.8011669 11.3854512,15.7321314 C11.3474464,15.7101893 11.3158869,15.6786298 11.2939449,15.640625 L9.40853539,12.375 C9.3394998,12.2554268 9.38046859,12.1025292 9.50004174,12.0334936 C9.53804655,12.0115516 9.58115758,12 9.62504174,12 L11.0019383,12 L11.0019383,7 L12.0019383,7 L12.0019383,12 Z" id="Shape"></path>
        </g>
    </g>
</svg>